<svg width="282" height="357" viewBox="0 0 282 357" fill="none" xmlns="http://www.w3.org/2000/svg">
<path d="M81.7473 52.8828V89.2195C82.9445 100.128 102.038 121.144 139.765 120.701C181.401 120.211 196.096 100.454 199.035 91.311V56.4926M199.035 56.4926C196.394 69.3734 181.792 89.1596 141.235 88.3721C88.5569 87.3492 78.5701 60.8407 82.4547 49.186C83.4198 46.2906 84.7489 43.6849 86.3734 41.3424M199.035 56.4926C199.68 53.3496 199.612 50.6177 199.036 48.6962C198.353 46.4202 196.097 43.4025 192.667 40.2059M162.446 23.7151C157.889 22.4627 150.361 21.9898 141.235 21.7558C124.484 21.3263 97.9403 24.6629 86.3734 41.3424M162.446 23.7151L139.765 10L116.253 24.0323M162.446 23.7151C174.992 27.1631 186.029 34.0196 192.667 40.2059M86.3734 41.3424L8 86.9026M8 86.9026L140.255 163.805M8 86.9026V271.077L140.255 347M140.255 163.805L272.02 87.3924M140.255 163.805V347M272.02 87.3924L192.667 40.2059M272.02 87.3924L273 271.077L140.255 347" stroke="#902E40" stroke-width="16" stroke-linecap="round"/>
</svg>
