<svg width="232" height="292" viewBox="0 0 232 292" fill="none" xmlns="http://www.w3.org/2000/svg">
<path d="M66.7808 40.8841V71.2905C67.7837 80.4186 83.779 98.0051 115.384 97.6337C150.264 97.2238 162.575 80.6919 165.037 73.0407V43.9048M165.037 43.9048C162.824 54.6834 150.592 71.2404 116.616 70.5814C72.4854 69.7254 64.1191 47.5433 67.3734 37.7907C68.1819 35.3678 69.2953 33.1874 70.6562 31.2272M165.037 43.9048C165.577 41.2747 165.52 38.9887 165.038 37.3808C164.466 35.4763 162.576 32.9511 159.702 30.2761M134.385 16.4767C130.567 15.4287 124.261 15.033 116.616 14.8372C102.583 14.4778 80.3462 17.2699 70.6562 31.2272M134.385 16.4767L115.384 5L95.6876 16.7422M134.385 16.4767C144.896 19.362 154.141 25.0995 159.702 30.2761M70.6562 31.2272L5 69.3517M5 69.3517L115.795 133.703M5 69.3517V223.468L115.795 287M115.795 133.703L226.179 69.7616M115.795 133.703V287M226.179 69.7616L159.702 30.2761M226.179 69.7616L227 223.468L115.795 287" stroke="#D0C6A2" stroke-width="10" stroke-linecap="round" stroke-linejoin="round"/>
</svg>
