<?xml version="1.0" encoding="UTF-8"?><svg xmlns="http://www.w3.org/2000/svg" width="1920" height="1080" viewBox="0 0 1920 1080"><defs><style>.cls-1{fill:#9eb9b9;}.cls-2{fill:#b8cb96;}.cls-3{fill:#88a18f;}.cls-4{fill:#3f3625;}.cls-5{fill:#c9b792;}.cls-6{fill:#6d614d;}.cls-7{fill:#7d7056;}.cls-8{fill:#abc7ab;}.cls-9{fill:#93aaa8;}.cls-10{fill:#c1ad8b;}.cls-11{fill:#6d614b;}.cls-12{fill:#352c22;}.cls-13{fill:#fffaf0;}.cls-14{fill:#2d261b;}.cls-15{fill:#dbc6a2;}</style></defs><g id="Layer_9"><rect class="cls-13" x="-25.19" y="-14.05" width="1986" height="1133"/></g><g id="Layer_8"><rect class="cls-1" x="-47" y="864" width="2065" height="255"/></g><g id="Layer_11"><ellipse class="cls-9" cx="936.87" cy="967.51" rx="176.65" ry="72.49"/><path class="cls-5" d="m1111.08,948.63h-294.82c-11.37-122.64-22.74-245.28-34.11-367.92h365.48c-12.18,122.64-24.37,245.28-36.55,367.92Z"/><ellipse class="cls-15" cx="964.89" cy="580.11" rx="182.74" ry="38.38"/><ellipse class="cls-5" cx="963.67" cy="948.02" rx="147.41" ry="38.38"/><ellipse class="cls-7" cx="965.5" cy="579.8" rx="163.86" ry="34.41"/><path class="cls-4" d="m1122.04,586.94c0,5.24-10.75,10.09-29.02,14.05-24.27,7.52-72.27,12.62-127.53,12.62s-103.26-5.1-127.53-12.62c-18.27-3.96-29.02-8.81-29.02-14.05,0-4.43,7.7-8.59,21.14-12.15,4.65-6.9,25.24-13.83,50.87-16.58,20.21-2.17,38.42-1.19,48.71,2.08,5.4-.73,11.35-1.12,17.62-1.12s12.23.39,17.64,1.13c5.36-5.81,22.51-10.05,42.82-10.05,18.8,0,34.88,3.63,41.43,8.77,7.48-1.08,16.97-1.04,27,.39,21.73,3.07,37.81,11.44,35.91,18.69-.02.09-.04.19-.09.28,6.48,2.66,10.04,5.54,10.04,8.55Z"/><ellipse class="cls-14" cx="970.37" cy="580.11" rx="21.32" ry="11.57"/><rect class="cls-3" x="964.89" y="112.9" width="10.96" height="475.12"/><path class="cls-3" d="m966.18,180.42c.62.91,1.23,1.83,1.85,2.74,4.16-4.54,8.64-10.26,12.54-17.12,6.1-10.74,8.57-20.46,9.59-27.7-3.45,1.4-6.9,2.8-10.34,4.2,1.08,5.09,2.21,15.4-4.38,26.67-2.76,4.72-6.19,8.44-9.25,11.21Z"/><path class="cls-2" d="m980.47,144.47c-13.79-1.97-24.33-27.71-16.31-48.15,16.53-42.13,110.65-58.78,117.32-51,2.1,2.45-5.81,5.8-23.84,24.97-20.79,22.11-21.22,29.3-41.21,49.13-16.79,16.66-26.61,26.4-35.96,25.06Z"/><path class="cls-8" d="m1007.2,92.84c-7.32,7.97-13.41,16.87-18.16,25.79-3.87,7.27-8.74,17.56-4.52,25.29,8.25-1.47,17.53-10.65,31.94-24.95,19.99-19.82,20.42-27.02,41.21-49.13,17.9-19.03,25.82-22.47,23.88-24.92-28.46,12.74-55.84,27.75-74.35,47.92Z"/><path class="cls-3" d="m1000.09,463.68c-.25,1.13-.51,2.26-.76,3.39,8.92-1.07,19.34-2.88,30.29-6,17.12-4.88,29.39-11.21,37.66-16.45-5.05-1.04-10.09-2.07-15.14-3.11-3.91,4.82-12.93,13.9-31.11,18.89-7.61,2.09-14.95,2.95-20.94,3.27Z"/><path class="cls-2" d="m1050.9,443.5c-12.67-10.29,1.69-37.84,30.48-49.38,59.33-23.79,175.68,22.03,175.04,32.56-.2,3.32-11.91,1.04-50.06,5.24-43.99,4.84-51.58,10.41-92.45,13.91-34.34,2.94-54.41,4.65-63.01-2.33Z"/><path class="cls-8" d="m1130.48,418.43c-15.67,1.86-30.97,5.24-44.85,9.49-11.31,3.46-26.69,8.75-29.88,17.68,10.22,4.01,29.16,2.4,58.63-.12,40.87-3.5,48.46-9.07,92.45-13.91,37.87-4.17,49.68-1.96,50.05-5.17-42.82-7.6-86.76-12.67-126.4-7.97Z"/><path class="cls-3" d="m969.38,293.77c-.53,1.31-1.05,2.62-1.58,3.93,7.27-.75,15.93-2.28,25.38-5.32,14.77-4.75,26.18-11.48,34.15-17.15-3.64-1.5-7.28-2.99-10.92-4.49-4.44,5.42-14.11,15.55-29.75,20.38-6.55,2.02-12.52,2.62-17.29,2.65Z"/><path class="cls-2" d="m1014.88,272.99c-6.91-12.76,12.26-44.2,38.08-56.11,53.19-24.53,130.75,35.64,127.2,47.93-1.12,3.87-9.6.55-40.59,3.33-35.73,3.2-43.27,9.3-76.18,11.1-27.65,1.51-43.82,2.4-48.51-6.26Z"/><path class="cls-8" d="m1084.25,248.1c-12.77,1.3-25.69,4.4-37.75,8.59-9.83,3.42-23.37,8.74-28.44,19.03,6.82,5.26,22.06,4.45,45.8,3.15,32.91-1.8,40.45-7.9,76.18-11.1,30.76-2.76,39.34.49,40.56-3.25-31.22-11.3-64.05-19.7-96.36-16.41Z"/><path class="cls-3" d="m937.88,365.8c.69.98,1.39,1.96,2.08,2.94-6.57-.02-14.52-.54-23.42-2.17-13.92-2.55-25.2-6.91-33.25-10.71,2.96-1.45,5.93-2.9,8.89-4.35,4.88,3.88,15.22,11.03,29.91,13.57,6.15,1.07,11.55,1.06,15.78.72Z"/><path class="cls-2" d="m893.94,353.14c3.9-10.49-18.57-33.52-43.52-40.79-51.41-14.98-109.67,38-104.38,47.3,1.67,2.93,8.6-.32,36.55-.57,32.23-.29,39.97,3.88,69.45,2.72,24.77-.98,39.25-1.55,41.9-8.66Z"/><path class="cls-8" d="m828.13,339.13c11.54.02,23.53,1.43,34.95,3.76,9.31,1.9,22.23,5,28.52,12.63-5.12,4.64-18.78,5.19-40.04,6.03-29.48,1.16-37.22-3.01-69.45-2.72-27.75.25-34.78,3.45-36.51.63,25.7-11.25,53.33-20.36,82.53-20.32Z"/><path class="cls-3" d="m1011.63,340.73c1.2-.62,2.4-1.25,3.6-1.87-4.65,8.36-10.63,18.33-18.09,29.22-11.67,17.04-22.79,30.25-31.23,39.49,1.04-4.15,2.07-8.31,3.11-12.46,6.26-5.19,18.74-16.46,30.95-34.49,5.11-7.55,8.92-14.42,11.65-19.89Z"/><path class="cls-3" d="m1003.32,500.59c1.07-.41,2.14-.82,3.21-1.23-3.57,6.58-8.23,14.4-14.19,22.84-9.33,13.21-18.52,23.25-25.56,30.22.57-3.39,1.15-6.79,1.72-10.18,5.39-3.76,16.04-12.04,25.79-26.04,4.08-5.86,7-11.27,9.04-15.61Z"/><path class="cls-3" d="m1024.99,508.3c.92.24,1.83.48,2.75.72-4.2,3.18-9.51,6.74-15.97,10.1-10.1,5.26-19.4,8.18-26.36,9.85,1.19-2.3,2.38-4.59,3.57-6.89,4.99-.09,15.02-.9,25.62-6.54,4.44-2.36,7.87-4.99,10.41-7.24Z"/><path class="cls-3" d="m934.51,142.35c-1.36-1.4-2.73-2.8-4.09-4.21,2.41,13.51,5.89,29.83,10.98,48.09,7.96,28.55,17,51.64,24.24,68.1.57-6.13,1.13-12.26,1.7-18.39-6.18-9.94-18.04-31.01-26.27-61.17-3.45-12.63-5.41-23.72-6.56-32.43Z"/><path class="cls-3" d="m919.91,163.5c-1.22-.51-2.44-1.01-3.66-1.52,3.08,7.53,7.26,16.48,12.91,26.2,8.83,15.2,18.07,26.86,25.3,34.97-.05-3.83-.11-7.65-.16-11.48-5.83-4.45-17.18-14.19-26.36-30.29-3.85-6.74-6.36-12.93-8.02-17.88Z"/><path class="cls-3" d="m924.46,399.97c-1.33-.32-2.65-.65-3.98-.97,4.45,7.21,10.26,15.69,17.69,24.73,11.62,14.14,23.04,24.58,31.79,31.71-.73-3.9-1.46-7.81-2.19-11.71-6.69-3.62-19.9-11.77-32.04-26.77-5.08-6.28-8.72-12.2-11.27-17Z"/><path class="cls-3" d="m931.52,192.15c.09.58.17,1.16.26,1.74-2.86-.99-6.2-2.43-9.72-4.56-5.5-3.33-9.46-7.14-12.13-10.19,1.61-.26,3.22-.53,4.83-.79,1.27,2.62,4.2,7.65,10.04,11.09,2.45,1.44,4.8,2.25,6.72,2.71Z"/><path class="cls-2" d="m915.17,179.41c4.01-4.53-.7-19.11-9.97-26.38-19.09-14.99-56.15,2.11-55.9,7.44.08,1.68,3.82,1.13,16.05,5.19,14.1,4.68,16.56,7.87,29.66,11.71,11,3.23,17.44,5.12,20.16,2.05Z"/><path class="cls-8" d="m889.59,162.75c5.02,1.73,9.94,4.22,14.4,7.06,3.64,2.32,8.58,5.76,9.64,10.42-3.25,1.49-9.32-.28-18.77-3.05-13.1-3.84-15.55-7.03-29.66-11.71-12.14-4.03-15.91-3.52-16.05-5.16,13.68-1.64,27.72-1.94,40.43,2.44Z"/><path class="cls-3" d="m937.11,162.33c-.16.58-.32,1.15-.48,1.73-2.21-2.21-4.68-5.05-7.03-8.61-3.67-5.56-5.73-10.87-6.92-14.9,1.58.48,3.16.97,4.75,1.45.09,3,.71,8.96,4.65,14.78,1.65,2.44,3.47,4.24,5.03,5.54Z"/><path class="cls-2" d="m927.36,143.17c5.52-2.37,7.18-17.97,1.68-28.88-11.34-22.48-52.23-23.41-54.18-18.38-.61,1.59,3.03,2.77,12.56,12.05,10.99,10.69,11.93,14.75,22.34,24.22,8.75,7.95,13.86,12.61,17.61,11Z"/><path class="cls-8" d="m910.78,116.21c3.89,3.87,7.36,8.39,10.28,13.03,2.38,3.78,5.5,9.2,4.56,13.98-3.59-.09-8.42-4.47-15.92-11.3-10.41-9.47-11.35-13.52-22.34-24.22-9.46-9.21-13.12-10.44-12.57-12.01,13.18,4.67,26.15,10.73,35.99,20.52Z"/><path class="cls-3" d="m945.14,192.91c.26.29.52.59.79.88,1.38-1.53,2.83-3.44,4.03-5.73,1.87-3.58,2.43-6.79,2.55-9.18-1.23.49-2.46.98-3.69,1.47.59,1.66,1.38,5.03-.66,8.79-.85,1.57-1.99,2.83-3.03,3.76Z"/><path class="cls-2" d="m949.13,180.99c-5.19-.52-10.04-8.87-7.81-15.66,4.6-13.97,38.93-20.28,41.68-17.79.87.79-1.94,1.95-7.94,8.41-6.91,7.44-6.81,9.81-13.5,16.49-5.63,5.62-8.92,8.9-12.43,8.55Z"/><path class="cls-8" d="m957.17,163.81c-2.42,2.68-4.36,5.66-5.8,8.62-1.17,2.42-2.61,5.84-.76,8.34,3.01-.56,6.12-3.65,10.95-8.47,6.7-6.68,6.59-9.05,13.5-16.49,5.95-6.41,8.77-7.6,7.96-8.39-10.1,4.43-19.71,9.61-25.85,16.39Z"/><path class="cls-3" d="m980.55,383.05c.29.47.57.95.86,1.42,1.51-2.46,3.1-5.55,4.41-9.24,2.05-5.77,2.66-10.95,2.79-14.8-1.34.79-2.69,1.58-4.03,2.37.64,2.68,1.51,8.11-.72,14.17-.93,2.54-2.18,4.56-3.31,6.06Z"/><path class="cls-2" d="m984.92,363.82c-5.68-.84-10.98-14.31-8.54-25.24,5.03-22.53,42.58-32.7,45.59-28.68.95,1.27-2.13,3.15-8.68,13.56-7.56,12-7.45,15.81-14.77,26.59-6.15,9.05-9.75,14.35-13.6,13.78Z"/><path class="cls-8" d="m993.71,336.12c-2.65,4.32-4.77,9.12-6.35,13.91-1.28,3.9-2.85,9.42-.83,13.44,3.29-.9,6.69-5.89,11.97-13.66,7.32-10.78,7.21-14.59,14.77-26.59,6.51-10.33,9.59-12.26,8.7-13.53-11.05,7.15-21.56,15.49-28.27,26.43Z"/><path class="cls-3" d="m982.56,532.29c-.07-.28-.15-.56-.22-.85,1.76.36,3.82.91,6.01,1.79,3.43,1.38,5.95,3.07,7.67,4.45-.96.2-1.92.41-2.88.61-.86-1.23-2.81-3.57-6.45-4.99-1.52-.6-2.97-.88-4.14-1.02Z"/><path class="cls-2" d="m992.87,537.8c-2.24,2.41,1.14,9.36,6.98,12.51,12.04,6.49,33.66-3.63,33.31-6.23-.11-.82-2.34-.38-9.84-1.81-8.65-1.65-10.25-3.1-18.26-4.39-6.73-1.08-10.67-1.71-12.19-.08Z"/><path class="cls-8" d="m1008.87,544.81c-3.08-.62-6.13-1.61-8.92-2.81-2.27-.97-5.37-2.44-6.19-4.68,1.9-.88,5.61-.29,11.4.64,8.02,1.29,9.61,2.74,18.26,4.39,7.45,1.42,9.7,1,9.84,1.79-8.16,1.43-16.59,2.23-24.39.66Z"/><path class="cls-3" d="m939.53,421.74c.13.42.25.84.38,1.25-2.71-.52-5.89-1.34-9.29-2.65-5.32-2.04-9.26-4.55-11.95-6.59,1.46-.3,2.92-.61,4.38-.91,1.38,1.82,4.47,5.29,10.11,7.39,2.36.88,4.59,1.3,6.39,1.51Z"/><path class="cls-2" d="m923.49,413.58c3.32-3.58-2.18-13.89-11.27-18.55-18.74-9.6-51.39,5.46-50.73,9.33.21,1.22,3.6.56,15.15,2.67,13.33,2.43,15.84,4.58,28.17,6.47,10.36,1.59,16.43,2.51,18.68.08Z"/><path class="cls-8" d="m898.66,403.21c4.75.91,9.46,2.38,13.79,4.14,3.53,1.44,8.34,3.6,9.69,6.93-2.87,1.32-8.59.45-17.48-.92-12.34-1.89-14.85-4.04-28.17-6.47-11.47-2.09-14.9-1.46-15.15-2.64,12.43-2.15,25.3-3.35,37.33-1.04Z"/><path class="cls-3" d="m998.59,508.43c-.11.51-.21,1.02-.32,1.53,1.99-.81,4.35-1.99,6.87-3.78,3.95-2.79,6.91-6.05,8.95-8.67-1.05-.27-2.11-.54-3.16-.8-1.07,2.27-3.45,6.62-7.64,9.5-1.75,1.21-3.39,1.86-4.71,2.23Z"/><path class="cls-2" d="m1010.57,497.62c-2.3-4.07,2.08-16.76,8.88-22.93,14.01-12.72,37.31,3.14,36.69,7.8-.19,1.47-2.64.91-11.15,4.19-9.81,3.79-11.72,6.53-20.78,9.6-7.62,2.58-12.07,4.09-13.63,1.33Z"/><path class="cls-8" d="m1029.06,483.58c-3.5,1.41-6.99,3.47-10.21,5.87-2.62,1.95-6.21,4.86-7.31,8.92,2.05,1.38,6.25-.03,12.79-2.25,9.07-3.07,10.98-5.82,20.78-9.6,8.44-3.26,10.92-2.73,11.15-4.16-8.99-1.75-18.34-2.34-27.2,1.22Z"/><path class="cls-3" d="m1011.81,518.67c-.56.34-1.11.68-1.67,1.02,2.95.82,6.63,1.6,11.02,2.02,6.87.65,13.01.17,17.56-.47-.96-1.01-1.92-2.02-2.89-3.03-3.16,1.08-9.57,2.89-16.78,2.14-3.02-.31-5.43-1-7.24-1.68Z"/><path class="cls-2" d="m1034.64,518.7c.89-5.08,16.71-12.29,29.7-12.3,26.75-.03,39.52,30.47,34.82,33.86-1.48,1.07-3.77-1.23-16.21-4.87-14.34-4.2-18.85-3.36-31.75-7.6-10.83-3.56-17.17-5.64-16.57-9.09Z"/><path class="cls-8" d="m1067.59,520.92c-5.17-1.45-10.88-2.35-16.58-2.78-4.64-.35-11.2-.63-15.92,1.9,1.13,2.67,7.1,4.64,16.4,7.7,12.89,4.24,17.4,3.4,31.75,7.6,12.35,3.62,14.69,5.91,16.17,4.89-8.67-8.16-18.75-15.64-31.82-19.32Z"/><path class="cls-12" d="m1027.02,592.29c0,8.41-25.36,15.23-56.65,15.23s-56.65-6.82-56.65-15.23c0-3.45,4.25-6.63,11.43-9.17,2.64-4.03,8.44-7.35,15.53-8.37,6.42-.94,12.39.22,16.19,2.75.44-.02.87-.06,1.3-.07,3.01-1.72,7.36-2.8,12.19-2.8,4.17,0,7.97.8,10.87,2.13,3.92-2.4,9.94-3.3,16.35-2.08,5.86,1.13,10.77,3.8,13.67,7.07,9.77,2.74,15.76,6.46,15.76,10.55Z"/><path class="cls-10" d="m1123.26,830.46c-4.15,39.8-8.29,79.59-12.44,119.39h-.02c-1.25,20.92-66.75,37.77-147.39,37.77s-146.13-16.85-147.39-37.77h-.02c-19.04-186.09-23.23-239.82-21.67-240,2.15-.25-2.18,104.27,64.57,166.9,39.35,36.92,87.69,44.53,102.33,46.29,20.62,2.48,68.78,8.29,112.08-23.15,32.55-23.63,45.4-55.83,49.95-69.44Z"/></g><g id="Layer_1"><path class="cls-11" d="m97.21,301.34h-5.63l-13.69-79.89c-.08-.71-.34-1.4-.78-2.06-.44-.67-1.01-1.13-1.72-1.38l-6.56-2.31.88-4h31.38l-.94,4-10.56,3.13,9.81,57.82,1.12,8.38h.69l39.19-65.89-10.5-3.44.94-4h27.32l-.94,4-5.81,2.44c-.79.29-1.56.75-2.31,1.38-.75.62-1.35,1.31-1.81,2.06l-39.76,65.2-10.31,14.56Z"/><path class="cls-11" d="m170.84,301.4c-1.29,0-2.78-.16-4.47-.47-1.69-.31-3.42-.84-5.19-1.59-1.77-.75-3.5-1.78-5.19-3.09-1.69-1.31-3.2-2.95-4.53-4.91-1.33-1.96-2.41-4.29-3.22-7-.81-2.71-1.22-5.85-1.22-9.44,0-3.33.38-6.67,1.16-10,.77-3.33,1.91-6.54,3.41-9.63,1.5-3.08,3.32-5.96,5.47-8.63,2.15-2.67,4.58-4.98,7.31-6.94,2.73-1.96,5.74-3.5,9.03-4.63,3.29-1.12,6.85-1.69,10.69-1.69,2.12,0,4.29.25,6.5.75,2.21.5,4.21,1.29,6,2.38,1.79,1.08,3.25,2.53,4.38,4.34,1.12,1.81,1.69,4.01,1.69,6.6s-.46,4.9-1.38,6.94c-.92,2.04-2.18,3.85-3.78,5.44-1.6,1.58-3.49,2.93-5.66,4.03-2.17,1.1-4.48,2.02-6.94,2.75-2.46.73-5.01,1.26-7.66,1.59-2.65.33-5.26.5-7.84.5-.79,0-1.67-.04-2.63-.12-.96-.08-1.9-.17-2.81-.25-.92-.08-1.79-.18-2.63-.28-.83-.1-1.5-.2-2-.28-.08.42-.15.83-.19,1.25-.04.42-.07.83-.09,1.25-.02.42-.04.81-.06,1.19-.02.38-.03.73-.03,1.06,0,2.88.31,5.56.94,8.06s1.65,4.68,3.06,6.53c1.42,1.85,3.25,3.31,5.5,4.38s5,1.59,8.25,1.59c1.92,0,3.73-.23,5.44-.69,1.71-.46,3.4-1.09,5.06-1.91,1.67-.81,3.36-1.77,5.09-2.88,1.73-1.1,3.55-2.3,5.47-3.59h2.06l-.88,7.19c-2.25,1.5-4.41,2.87-6.47,4.09-2.06,1.23-4.19,2.3-6.38,3.22-2.19.92-4.51,1.63-6.97,2.13-2.46.5-5.23.75-8.31.75Zm-2.38-38.32c3.63.04,6.81-.26,9.56-.91,2.75-.65,5.05-1.63,6.91-2.94,1.85-1.31,3.24-2.98,4.16-5,.92-2.02,1.38-4.41,1.38-7.16,0-1.17-.23-2.23-.69-3.19-.46-.96-1.12-1.77-1.97-2.44-.85-.67-1.89-1.19-3.09-1.56-1.21-.38-2.58-.56-4.13-.56-1.92,0-3.89.54-5.91,1.62-2.02,1.08-3.95,2.64-5.78,4.66-1.83,2.02-3.49,4.48-4.97,7.38-1.48,2.9-2.64,6.16-3.47,9.78,1,.04,1.9.09,2.69.16.79.06,1.5.1,2.13.12.62.02,1.21.03,1.75.03h1.44Z"/><path class="cls-11" d="m225.41,301.03c-1.79,0-3.35-.28-4.69-.84-1.33-.56-2.45-1.28-3.34-2.16-.9-.88-1.56-1.83-2-2.88-.44-1.04-.66-2.04-.66-3,0-1.21.13-2.59.41-4.16.27-1.56.59-3.18.97-4.84l14.69-66.26c.21-1.04.11-1.83-.28-2.38-.4-.54-1.07-1-2.03-1.38l-7.5-3.06v-3.5l24.19-2.38-16.44,73.89c-.21,1.04-.43,2.08-.66,3.13-.23,1.04-.44,2.03-.62,2.97-.19.94-.32,1.79-.41,2.56-.08.77-.12,1.39-.12,1.84,0,.54.12,1.1.38,1.69.25.58.65,1.12,1.19,1.62.54.5,1.23.92,2.06,1.25.83.33,1.83.5,3,.5.33,0,.8-.04,1.41-.12.6-.08,1.27-.21,2-.38.73-.17,1.48-.36,2.25-.59.77-.23,1.49-.47,2.16-.72h1.69v4.56c-1.42.79-2.94,1.48-4.56,2.06-1.62.58-3.25,1.07-4.88,1.47-1.63.4-3.15.68-4.56.84-1.42.17-2.63.25-3.63.25Z"/><path class="cls-11" d="m299.8,301.03c-1.54,0-2.84-.22-3.91-.66s-1.98-1.06-2.75-1.88c-.77-.81-1.45-1.78-2.03-2.91-.58-1.12-1.17-2.4-1.75-3.81l-10.56-24.07-10.06,7.81-2.56,12.13c-.12,1.08-.21,2.18-.25,3.28-.04,1.1-.07,2.19-.09,3.25-.02,1.06-.03,2.1-.03,3.13v2.78h-13.94l18.5-83.2c.17-.88.06-1.61-.31-2.22-.38-.6-1.02-1.11-1.94-1.53l-6.5-3.06v-3.5l23.07-2.38-14.5,65.45c3.21-3.54,6.23-6.83,9.06-9.88,2.83-3.04,5.42-5.81,7.75-8.31,2.33-2.5,4.44-4.7,6.31-6.59,1.88-1.9,3.46-3.43,4.75-4.59,1.21-1.08,2.29-2.01,3.25-2.78.96-.77,1.92-1.42,2.88-1.94.96-.52,1.96-.9,3-1.12,1.04-.23,2.25-.34,3.63-.34.63,0,1.19.01,1.69.03.5.02.98.04,1.44.06.46.02,1,.07,1.63.16.62.08,1.17.19,1.63.31l-1.13,12.13h-2.31c-.38-.08-.89-.18-1.53-.28-.65-.1-1.37-.2-2.16-.28-.79-.08-1.62-.16-2.47-.22-.85-.06-1.62-.09-2.28-.09-.92,0-2.02.3-3.31.91-1.29.6-2.72,1.49-4.28,2.66-1.56,1.17-3.2,2.56-4.91,4.19-1.71,1.62-3.44,3.48-5.19,5.56l12.81,29.75c.25.67.59,1.28,1.03,1.84s.95,1.06,1.53,1.5c.58.44,1.26.78,2.03,1.03.77.25,1.66.38,2.66.38.33,0,.76-.03,1.28-.09.52-.06,1.08-.17,1.69-.31.6-.15,1.23-.32,1.88-.53.65-.21,1.3-.46,1.97-.75h1.69v4.56c-1.42.79-2.88,1.47-4.38,2.03-1.5.56-2.98,1.02-4.44,1.38-1.46.35-2.84.61-4.16.78-1.31.17-2.45.25-3.41.25Z"/><path class="cls-11" d="m350.43,301.78c-4.08,0-7.76-.64-11.03-1.91-3.27-1.27-6.03-3.07-8.28-5.41-2.25-2.33-3.98-5.17-5.19-8.5-1.21-3.33-1.81-7.06-1.81-11.19,0-3.71.41-7.3,1.22-10.78.81-3.48,1.97-6.75,3.47-9.81,1.5-3.06,3.3-5.87,5.41-8.41,2.1-2.54,4.47-4.73,7.1-6.56,2.63-1.83,5.47-3.26,8.53-4.28,3.06-1.02,6.3-1.53,9.72-1.53,4.58,0,8.53.73,11.85,2.19,3.31,1.46,6.03,3.43,8.16,5.91,2.13,2.48,3.69,5.38,4.69,8.69,1,3.31,1.5,6.82,1.5,10.53s-.41,7.16-1.22,10.6-1.96,6.69-3.44,9.75c-1.48,3.06-3.28,5.87-5.41,8.41-2.13,2.54-4.49,4.72-7.1,6.53-2.6,1.81-5.44,3.23-8.5,4.25s-6.28,1.53-9.66,1.53Zm.88-5.75c2.38,0,4.57-.54,6.6-1.63,2.02-1.08,3.83-2.53,5.44-4.34,1.6-1.81,3.02-3.94,4.25-6.38,1.23-2.44,2.25-5.01,3.06-7.72.81-2.71,1.43-5.48,1.84-8.31.42-2.83.62-5.58.62-8.25s-.25-5.35-.75-7.81c-.5-2.46-1.31-4.6-2.44-6.44-1.13-1.83-2.62-3.28-4.47-4.34-1.85-1.06-4.16-1.59-6.91-1.59-2.54,0-4.84.58-6.91,1.75-2.06,1.17-3.91,2.71-5.53,4.63-1.63,1.92-3.02,4.13-4.19,6.63-1.17,2.5-2.14,5.12-2.91,7.85-.77,2.73-1.34,5.46-1.72,8.19-.38,2.73-.56,5.28-.56,7.66,0,2.62.23,5.15.69,7.56.46,2.42,1.25,4.55,2.38,6.41,1.13,1.85,2.61,3.34,4.47,4.47,1.85,1.12,4.2,1.69,7.03,1.69Z"/><path class="cls-11" d="m488.39,301.03c-1.75,0-3.25-.28-4.5-.84-1.25-.56-2.29-1.28-3.13-2.16-.83-.88-1.45-1.83-1.84-2.88-.4-1.04-.59-2.04-.59-3-.04-1,.06-2.33.31-4,.25-1.67.58-3.38,1-5.13l5.56-23.5c.33-1.58.61-3.1.84-4.56.23-1.46.34-2.79.34-4,0-1.42-.19-2.69-.56-3.81-.38-1.12-.98-2.07-1.81-2.84-.83-.77-1.93-1.36-3.28-1.78-1.35-.42-2.99-.62-4.91-.62-1.17,0-2.41.12-3.72.34-1.31.23-2.65.6-4,1.12-1.35.52-2.71,1.2-4.06,2.03-1.35.83-2.62,1.85-3.78,3.06l-8.75,39.19c-.08,1-.16,2.05-.22,3.16-.06,1.1-.1,2.21-.12,3.31-.02,1.1-.03,2.17-.03,3.19v2.78h-13.94l9.06-40.57c.33-1.54.61-3.09.84-4.66.23-1.56.34-2.95.34-4.16,0-1.42-.18-2.67-.53-3.75-.35-1.08-.95-2-1.78-2.75-.83-.75-1.91-1.32-3.22-1.72-1.31-.4-2.93-.59-4.84-.59-1.25,0-2.56.12-3.94.34-1.38.23-2.75.6-4.13,1.12-1.38.52-2.72,1.19-4.03,2-1.31.81-2.53,1.8-3.66,2.97l-8.75,39.32c-.08,1-.16,2.05-.22,3.16-.06,1.1-.1,2.21-.12,3.31-.02,1.1-.03,2.17-.03,3.19v2.78h-13.94l11.69-52.45c.21-.96.1-1.73-.31-2.31-.42-.58-1.12-1.06-2.13-1.44l-6.5-2.75v-3.38l22.57-3.81-2.06,10.25h.44c2.29-2.33,4.45-4.21,6.47-5.63,2.02-1.42,3.94-2.51,5.75-3.28,1.81-.77,3.54-1.28,5.19-1.53,1.65-.25,3.24-.38,4.78-.38,2,0,3.89.23,5.66.69,1.77.46,3.35,1.17,4.75,2.13,1.4.96,2.55,2.21,3.47,3.75.92,1.54,1.52,3.42,1.81,5.63,2.63-2.83,5.03-5.06,7.22-6.69,2.19-1.62,4.2-2.84,6.03-3.66,1.83-.81,3.54-1.32,5.13-1.53,1.58-.21,3.1-.31,4.56-.31,2.25,0,4.33.3,6.25.91,1.92.6,3.58,1.52,5,2.75,1.42,1.23,2.53,2.78,3.34,4.66.81,1.88,1.22,4.11,1.22,6.69,0,1-.07,2.07-.22,3.22-.15,1.15-.37,2.3-.66,3.47l-4.44,19c-.33,1.29-.66,2.7-.97,4.22-.31,1.52-.59,2.97-.84,4.34-.25,1.38-.46,2.6-.62,3.69-.17,1.08-.25,1.85-.25,2.31,0,.54.1,1.1.31,1.69.21.58.54,1.14,1,1.66.46.52,1.09.94,1.91,1.25.81.31,1.8.47,2.97.47.33,0,.75-.03,1.25-.09s1.04-.17,1.63-.31c.58-.15,1.21-.32,1.88-.53.67-.21,1.31-.46,1.94-.75h1.69v4.56c-1.38.79-2.84,1.47-4.41,2.03-1.56.56-3.09,1.02-4.59,1.38-1.5.35-2.93.61-4.28.78-1.35.17-2.51.25-3.47.25Z"/><path class="cls-11" d="m605.1,301.03c-1.75,0-3.25-.28-4.5-.84-1.25-.56-2.29-1.28-3.13-2.16-.83-.88-1.45-1.83-1.84-2.88-.4-1.04-.59-2.04-.59-3-.04-1,.06-2.33.31-4,.25-1.67.58-3.38,1-5.13l5.56-23.5c.33-1.58.61-3.1.84-4.56.23-1.46.34-2.79.34-4,0-1.42-.19-2.69-.56-3.81-.38-1.12-.98-2.07-1.81-2.84-.83-.77-1.93-1.36-3.28-1.78-1.35-.42-2.99-.62-4.91-.62-1.17,0-2.41.12-3.72.34-1.31.23-2.65.6-4,1.12-1.35.52-2.71,1.2-4.06,2.03-1.35.83-2.62,1.85-3.78,3.06l-8.75,39.19c-.08,1-.16,2.05-.22,3.16-.06,1.1-.1,2.21-.12,3.31-.02,1.1-.03,2.17-.03,3.19v2.78h-13.94l9.06-40.57c.33-1.54.61-3.09.84-4.66.23-1.56.34-2.95.34-4.16,0-1.42-.18-2.67-.53-3.75-.35-1.08-.95-2-1.78-2.75-.83-.75-1.91-1.32-3.22-1.72-1.31-.4-2.93-.59-4.84-.59-1.25,0-2.56.12-3.94.34-1.38.23-2.75.6-4.13,1.12-1.38.52-2.72,1.19-4.03,2-1.31.81-2.53,1.8-3.66,2.97l-8.75,39.32c-.08,1-.16,2.05-.22,3.16-.06,1.1-.1,2.21-.12,3.31-.02,1.1-.03,2.17-.03,3.19v2.78h-13.94l11.69-52.45c.21-.96.1-1.73-.31-2.31-.42-.58-1.12-1.06-2.13-1.44l-6.5-2.75v-3.38l22.57-3.81-2.06,10.25h.44c2.29-2.33,4.45-4.21,6.47-5.63,2.02-1.42,3.94-2.51,5.75-3.28,1.81-.77,3.54-1.28,5.19-1.53,1.65-.25,3.24-.38,4.78-.38,2,0,3.89.23,5.66.69,1.77.46,3.35,1.17,4.75,2.13,1.4.96,2.55,2.21,3.47,3.75.92,1.54,1.52,3.42,1.81,5.63,2.63-2.83,5.03-5.06,7.22-6.69,2.19-1.62,4.2-2.84,6.03-3.66,1.83-.81,3.54-1.32,5.13-1.53,1.58-.21,3.1-.31,4.56-.31,2.25,0,4.33.3,6.25.91,1.92.6,3.58,1.52,5,2.75,1.42,1.23,2.53,2.78,3.34,4.66.81,1.88,1.22,4.11,1.22,6.69,0,1-.07,2.07-.22,3.22-.15,1.15-.37,2.3-.66,3.47l-4.44,19c-.33,1.29-.66,2.7-.97,4.22-.31,1.52-.59,2.97-.84,4.34-.25,1.38-.46,2.6-.62,3.69-.17,1.08-.25,1.85-.25,2.31,0,.54.1,1.1.31,1.69.21.58.54,1.14,1,1.66.46.52,1.09.94,1.91,1.25.81.31,1.8.47,2.97.47.33,0,.75-.03,1.25-.09s1.04-.17,1.63-.31c.58-.15,1.21-.32,1.88-.53.67-.21,1.31-.46,1.94-.75h1.69v4.56c-1.38.79-2.84,1.47-4.41,2.03-1.56.56-3.09,1.02-4.59,1.38-1.5.35-2.93.61-4.28.78-1.35.17-2.51.25-3.47.25Z"/><path class="cls-11" d="m654.11,301.4c-1.29,0-2.78-.16-4.47-.47-1.69-.31-3.42-.84-5.19-1.59-1.77-.75-3.5-1.78-5.19-3.09-1.69-1.31-3.2-2.95-4.53-4.91-1.33-1.96-2.41-4.29-3.22-7-.81-2.71-1.22-5.85-1.22-9.44,0-3.33.38-6.67,1.16-10,.77-3.33,1.91-6.54,3.41-9.63,1.5-3.08,3.32-5.96,5.47-8.63,2.15-2.67,4.58-4.98,7.31-6.94,2.73-1.96,5.74-3.5,9.03-4.63,3.29-1.12,6.85-1.69,10.69-1.69,2.12,0,4.29.25,6.5.75,2.21.5,4.21,1.29,6,2.38,1.79,1.08,3.25,2.53,4.38,4.34,1.12,1.81,1.69,4.01,1.69,6.6s-.46,4.9-1.38,6.94c-.92,2.04-2.18,3.85-3.78,5.44-1.6,1.58-3.49,2.93-5.66,4.03-2.17,1.1-4.48,2.02-6.94,2.75-2.46.73-5.01,1.26-7.66,1.59-2.65.33-5.26.5-7.84.5-.79,0-1.67-.04-2.63-.12-.96-.08-1.9-.17-2.81-.25-.92-.08-1.79-.18-2.63-.28-.83-.1-1.5-.2-2-.28-.08.42-.15.83-.19,1.25-.04.42-.07.83-.09,1.25-.02.42-.04.81-.06,1.19-.02.38-.03.73-.03,1.06,0,2.88.31,5.56.94,8.06s1.65,4.68,3.06,6.53c1.42,1.85,3.25,3.31,5.5,4.38s5,1.59,8.25,1.59c1.92,0,3.73-.23,5.44-.69,1.71-.46,3.4-1.09,5.06-1.91,1.67-.81,3.36-1.77,5.09-2.88,1.73-1.1,3.55-2.3,5.47-3.59h2.06l-.88,7.19c-2.25,1.5-4.41,2.87-6.47,4.09-2.06,1.23-4.19,2.3-6.38,3.22-2.19.92-4.51,1.63-6.97,2.13-2.46.5-5.23.75-8.31.75Zm-2.38-38.32c3.63.04,6.81-.26,9.56-.91,2.75-.65,5.05-1.63,6.91-2.94,1.85-1.31,3.24-2.98,4.16-5,.92-2.02,1.38-4.41,1.38-7.16,0-1.17-.23-2.23-.69-3.19-.46-.96-1.12-1.77-1.97-2.44-.85-.67-1.89-1.19-3.09-1.56-1.21-.38-2.58-.56-4.13-.56-1.92,0-3.89.54-5.91,1.62-2.02,1.08-3.95,2.64-5.78,4.66-1.83,2.02-3.49,4.48-4.97,7.38-1.48,2.9-2.64,6.16-3.47,9.78,1,.04,1.9.09,2.69.16.79.06,1.5.1,2.13.12.62.02,1.21.03,1.75.03h1.44Z"/><path class="cls-11" d="m747.69,301.03c-1.71,0-3.2-.28-4.47-.84-1.27-.56-2.31-1.28-3.13-2.16-.81-.88-1.43-1.83-1.84-2.88-.42-1.04-.62-2.04-.62-3s.12-2.34.38-4.03c.25-1.69.58-3.39,1-5.09l5.06-21.63c.21-.83.42-1.72.62-2.66.21-.94.4-1.85.56-2.75.17-.9.3-1.78.41-2.66.1-.88.16-1.67.16-2.38,0-1.46-.21-2.75-.62-3.88-.42-1.12-1.06-2.06-1.94-2.81-.88-.75-2.02-1.33-3.44-1.75-1.42-.42-3.13-.62-5.13-.62-1.21,0-2.52.12-3.94.34-1.42.23-2.83.6-4.25,1.12-1.42.52-2.8,1.19-4.16,2-1.35.81-2.59,1.8-3.72,2.97l-8.69,39.32c-.12,1.04-.21,2.12-.25,3.22-.04,1.1-.07,2.2-.09,3.28-.02,1.08-.03,2.14-.03,3.16v2.78h-14l11.63-52.45c.17-.96.05-1.73-.34-2.31-.4-.58-1.09-1.06-2.09-1.44l-6.5-2.75v-3.38l22.5-3.81-2.13,10.25h.5c2.29-2.5,4.46-4.47,6.5-5.91,2.04-1.44,4-2.52,5.88-3.25,1.88-.73,3.68-1.19,5.41-1.38,1.73-.19,3.41-.28,5.03-.28,2.21,0,4.29.29,6.25.88,1.96.58,3.66,1.48,5.09,2.69,1.44,1.21,2.57,2.74,3.41,4.59.83,1.85,1.25,4.05,1.25,6.6,0,1.04-.08,2.18-.25,3.41-.17,1.23-.38,2.41-.62,3.53l-5,21.07c-.29,1.21-.56,2.47-.81,3.78-.25,1.31-.48,2.55-.69,3.72-.21,1.17-.38,2.2-.5,3.09-.12.9-.19,1.53-.19,1.91,0,.54.1,1.1.31,1.69.21.58.55,1.14,1.03,1.66.48.52,1.11.94,1.91,1.25.79.31,1.77.47,2.94.47.33,0,.76-.03,1.28-.09.52-.06,1.07-.17,1.66-.31.58-.15,1.2-.32,1.84-.53.65-.21,1.3-.46,1.97-.75h1.69v4.56c-1.42.79-2.9,1.47-4.44,2.03-1.54.56-3.07,1.02-4.59,1.38-1.52.35-2.96.61-4.31.78-1.35.17-2.51.25-3.47.25Z"/><path class="cls-6" d="m1299.06,645.71l9.31-2.11c.47-.13.85-.36,1.15-.68.3-.33.45-.78.45-1.35v-25.12l.47-5.44-.63-.31-11.78,2.39v-3.4l16.71-7.51h3.44c-.05.91-.1,1.92-.14,3.01s-.07,2.22-.1,3.37c-.03,1.15-.05,2.29-.06,3.42-.01,1.13-.02,2.21-.02,3.23v26.38c0,.6.14,1.06.41,1.37.27.31.65.54,1.12.67l8.88,2.11v2.94h-29.23v-2.94Z"/><path class="cls-6" d="m1339.1,643.75c0-.83.16-1.61.47-2.33.31-.72.73-1.35,1.25-1.9.52-.55,1.14-.97,1.86-1.27.72-.3,1.51-.45,2.37-.45.81,0,1.58.15,2.31.45.73.3,1.37.72,1.92,1.27s.97,1.18,1.27,1.9c.3.72.45,1.49.45,2.33s-.15,1.61-.45,2.33c-.3.72-.72,1.33-1.27,1.84s-1.19.92-1.92,1.23-1.5.47-2.31.47c-.86,0-1.65-.16-2.37-.47s-1.34-.72-1.86-1.23c-.52-.51-.94-1.12-1.25-1.84-.31-.72-.47-1.49-.47-2.33Z"/><path class="cls-6" d="m1386.64,631.42h4.62l1.64,8.1c.05.37.29.74.7,1.12.42.38.77.66,1.06.84.73.5,1.53.97,2.39,1.41.86.44,1.75.83,2.68,1.17.93.34,1.89.61,2.9.82,1,.21,2.03.31,3.07.31,2.01,0,3.83-.23,5.46-.69,1.63-.46,3.01-1.12,4.13-1.98,1.12-.86,1.98-1.9,2.58-3.13.6-1.23.9-2.61.9-4.15,0-2.3-.69-4.21-2.07-5.73s-3.24-2.77-5.56-3.74c-1.12-.47-2.24-.89-3.35-1.27-1.11-.38-2.21-.76-3.31-1.14-1.1-.38-2.18-.75-3.25-1.12-1.07-.37-2.11-.76-3.13-1.17-3.16-1.3-5.64-3.14-7.44-5.52s-2.7-5.24-2.7-8.61c0-2.24.49-4.33,1.47-6.26.98-1.93,2.32-3.6,4.03-5.01,1.71-1.41,3.72-2.5,6.03-3.29,2.31-.78,4.79-1.17,7.46-1.17,1.59,0,3.14.07,4.64.21,1.5.14,2.94.34,4.32.59,1.38.25,2.72.53,4.01.84,1.29.31,2.54.61,3.74.9v14.36h-4.58l-1.56-7.67c-.05-.37-.28-.72-.69-1.08s-.76-.63-1.08-.84c-.47-.34-1-.66-1.6-.96-.6-.3-1.27-.57-2-.8-.73-.23-1.51-.42-2.35-.55-.83-.13-1.71-.2-2.62-.2-1.85,0-3.5.21-4.95.63-1.45.42-2.67.99-3.68,1.72-1,.73-1.77,1.58-2.29,2.56-.52.98-.78,2.04-.78,3.19,0,1.02.12,2.01.37,2.97.25.96.68,1.88,1.29,2.74s1.43,1.66,2.47,2.41c1.03.74,2.34,1.4,3.93,1.98,1.04.37,2.07.72,3.09,1.08,1.02.35,2.04.71,3.07,1.08,1.03.37,2.08.75,3.15,1.15,1.07.41,2.2.86,3.4,1.35,1.3.55,2.58,1.21,3.83,2,1.25.78,2.38,1.74,3.39,2.88,1,1.13,1.81,2.47,2.41,3.99s.9,3.32.9,5.38-.41,4.22-1.23,6.24c-.82,2.02-2.11,3.82-3.88,5.38-1.76,1.57-4.03,2.82-6.81,3.78-2.78.95-6.1,1.43-9.96,1.43-1.36,0-2.77-.11-4.25-.31-1.47-.21-2.98-.48-4.52-.82s-3.08-.72-4.64-1.15c-1.55-.43-3.1-.85-4.64-1.27l-.24-14.99Z"/><path class="cls-6" d="m1474.71,638.43v4.5c-.96.78-2.09,1.57-3.38,2.37s-2.69,1.51-4.21,2.13c-1.51.63-3.12,1.13-4.81,1.53-1.7.39-3.43.59-5.21.59-2.84,0-5.5-.47-7.96-1.41s-4.6-2.33-6.4-4.17c-1.8-1.84-3.22-4.11-4.25-6.81-1.03-2.7-1.55-5.81-1.55-9.33,0-3.13.49-6.06,1.47-8.79.98-2.73,2.36-5.1,4.15-7.12,1.79-2.02,3.93-3.61,6.42-4.75,2.49-1.15,5.24-1.72,8.24-1.72,2.77,0,5.24.45,7.42,1.35s4.02,2.11,5.54,3.62c1.51,1.51,2.67,3.29,3.46,5.32s1.19,4.16,1.19,6.38c0,.26,0,.57-.02.94-.01.37-.03.75-.06,1.15-.03.4-.07.8-.12,1.17-.05.38-.1.7-.16.96h-29.39c0,5.74,1.29,10.06,3.87,12.95,2.58,2.9,6.22,4.34,10.92,4.34,1.51,0,2.96-.18,4.33-.53,1.37-.35,2.63-.79,3.8-1.31,1.16-.52,2.22-1.09,3.17-1.7.95-.61,1.77-1.17,2.45-1.66h1.1Zm-8.22-16.16c0-1.9-.18-3.63-.53-5.19-.35-1.55-.91-2.88-1.68-3.97-.77-1.1-1.77-1.94-3.01-2.52s-2.75-.88-4.52-.88c-1.56,0-3.01.28-4.32.84-1.32.56-2.48,1.38-3.48,2.47-1,1.08-1.82,2.4-2.45,3.95-.63,1.55-1.02,3.32-1.17,5.3h21.17Z"/><path class="cls-6" d="m1484.59,645.79l4.77-1.53c.39-.13.74-.35,1.06-.67s.47-.74.47-1.29v-27.63c0-.55-.16-.98-.49-1.29-.33-.31-.72-.56-1.19-.74l-4.62-1.92v-2.82l13.38-2.15v6.69h.51c1.12-1.51,2.25-2.73,3.38-3.64,1.14-.91,2.27-1.62,3.41-2.11,1.13-.5,2.25-.83,3.35-1,1.1-.17,2.19-.25,3.29-.25,1.38,0,2.7.14,3.95.43,1.25.29,2.41.74,3.48,1.37s2.02,1.45,2.84,2.47c.82,1.02,1.48,2.24,1.98,3.68,1.41-1.88,2.75-3.35,4.01-4.4,1.26-1.06,2.47-1.85,3.62-2.39,1.15-.54,2.25-.86,3.31-.98s2.08-.18,3.07-.18c1.8,0,3.5.27,5.11.8,1.6.54,3,1.38,4.19,2.52,1.19,1.15,2.13,2.62,2.84,4.42.7,1.8,1.06,3.95,1.06,6.46v22.54c0,.63.15,1.08.45,1.37.3.29.67.51,1.12.67l4.23,1.57v2.86h-19.18v-2.86l4.03-1.53c.44-.18.82-.42,1.12-.72.3-.3.45-.75.45-1.35v-19.18c0-1.85-.11-3.5-.33-4.93-.22-1.43-.65-2.65-1.27-3.64s-1.52-1.75-2.68-2.27c-1.16-.52-2.67-.78-4.52-.78-.78,0-1.61.07-2.48.2-.88.13-1.75.35-2.62.67-.88.31-1.71.73-2.5,1.25s-1.51,1.19-2.13,2v26.69c0,.63.15,1.08.45,1.35.3.27.67.5,1.12.69l3.56,1.57v2.86h-18.39v-2.86l3.91-1.53c.47-.21.85-.45,1.14-.72.29-.27.43-.72.43-1.35v-19.18c0-1.85-.11-3.5-.33-4.93-.22-1.43-.64-2.65-1.25-3.64s-1.49-1.75-2.64-2.27c-1.15-.52-2.65-.78-4.5-.78-.83,0-1.7.07-2.6.2-.9.13-1.79.35-2.66.65-.87.3-1.7.71-2.49,1.23-.78.52-1.47,1.17-2.07,1.96v26.89c0,.55.16.97.49,1.25.33.29.69.51,1.08.67l3.64,1.57v2.86h-19.29v-2.86Z"/><path class="cls-6" d="m1603.46,638.43v4.5c-.96.78-2.09,1.57-3.38,2.37s-2.69,1.51-4.21,2.13c-1.51.63-3.12,1.13-4.81,1.53-1.7.39-3.43.59-5.21.59-2.84,0-5.5-.47-7.96-1.41s-4.6-2.33-6.4-4.17c-1.8-1.84-3.22-4.11-4.25-6.81-1.03-2.7-1.55-5.81-1.55-9.33,0-3.13.49-6.06,1.47-8.79.98-2.73,2.36-5.1,4.15-7.12,1.79-2.02,3.93-3.61,6.42-4.75,2.49-1.15,5.24-1.72,8.24-1.72,2.77,0,5.24.45,7.42,1.35s4.02,2.11,5.54,3.62c1.51,1.51,2.67,3.29,3.46,5.32s1.19,4.16,1.19,6.38c0,.26,0,.57-.02.94-.01.37-.03.75-.06,1.15-.03.4-.07.8-.12,1.17-.05.38-.1.7-.16.96h-29.39c0,5.74,1.29,10.06,3.87,12.95,2.58,2.9,6.22,4.34,10.92,4.34,1.51,0,2.96-.18,4.33-.53,1.37-.35,2.63-.79,3.8-1.31,1.16-.52,2.22-1.09,3.17-1.7.95-.61,1.77-1.17,2.45-1.66h1.1Zm-8.22-16.16c0-1.9-.18-3.63-.53-5.19-.35-1.55-.91-2.88-1.68-3.97-.77-1.1-1.77-1.94-3.01-2.52s-2.75-.88-4.52-.88c-1.56,0-3.01.28-4.32.84-1.32.56-2.48,1.38-3.48,2.47-1,1.08-1.82,2.4-2.45,3.95-.63,1.55-1.02,3.32-1.17,5.3h21.17Z"/><path class="cls-6" d="m1614.87,636.86h4.62l1.25,3.8c.18.52.44.97.76,1.33.33.37.67.65,1.04.86.55.31,1.13.59,1.76.82.63.23,1.29.44,1.98.63s1.4.33,2.13.43,1.46.16,2.19.16c1.07,0,2.16-.12,3.27-.35,1.11-.23,2.12-.62,3.03-1.15.91-.53,1.65-1.21,2.21-2.04.56-.82.84-1.81.84-2.95,0-.96-.15-1.79-.45-2.47-.3-.68-.74-1.26-1.31-1.76-.57-.5-1.28-.92-2.11-1.27-.84-.35-1.79-.68-2.86-1-1.49-.42-2.95-.83-4.4-1.25-1.45-.42-2.88-.83-4.29-1.25-1.49-.44-2.79-1.03-3.91-1.76-1.12-.73-2.07-1.58-2.84-2.56-.77-.98-1.35-2.05-1.74-3.21-.39-1.16-.59-2.39-.59-3.7,0-1.85.48-3.55,1.43-5.11.95-1.55,2.23-2.9,3.84-4.03s3.45-2.02,5.54-2.64c2.09-.63,4.28-.94,6.58-.94,1.2,0,2.33.04,3.4.12,1.07.08,2.09.2,3.07.37.98.17,1.93.37,2.86.59s1.88.48,2.88.76l.16,10.14h-4.66l-1.29-4.07c-.16-.42-.41-.79-.74-1.13-.34-.34-.69-.6-1.06-.78-.91-.44-1.9-.77-2.97-.98-1.07-.21-2.19-.31-3.37-.31s-2.3.12-3.31.37c-1,.25-1.88.61-2.64,1.08s-1.34,1.06-1.76,1.78c-.42.72-.63,1.55-.63,2.49,0,.99.15,1.85.45,2.56.3.72.76,1.36,1.39,1.94s1.41,1.08,2.35,1.51c.94.43,2.05.84,3.33,1.23.6.18,1.21.37,1.84.57s1.25.38,1.86.55c.61.17,1.22.35,1.82.55.6.2,1.19.37,1.76.53,1.62.5,3.04,1.06,4.27,1.68s2.25,1.36,3.07,2.21c.82.85,1.43,1.83,1.84,2.94.4,1.11.61,2.39.61,3.85,0,2.11-.51,4.02-1.53,5.71-1.02,1.7-2.36,3.14-4.03,4.32-1.67,1.19-3.59,2.09-5.75,2.7-2.17.61-4.37.92-6.61.92-1.46,0-2.86-.08-4.19-.24-1.33-.16-2.6-.37-3.8-.65-1.2-.27-2.35-.57-3.44-.9-1.1-.33-2.14-.66-3.13-1v-9.98Z"/><path class="cls-6" d="m1661.65,611.07h-6.81v-3.6c1.12-.18,2.13-.36,3.03-.53.9-.17,1.68-.46,2.35-.86s1.19-.98,1.57-1.74.61-1.81.68-3.17l.39-5.75,6.61-1.25v12.45h14.87l-.27,4.46h-14.6v27.36c0,.94.28,1.72.84,2.35.56.63,1.25,1.14,2.07,1.55.82.41,1.68.7,2.56.9.89.2,1.67.29,2.35.29.44,0,.95-.04,1.53-.14.57-.09,1.13-.2,1.68-.33.55-.13,1.06-.27,1.53-.43.47-.16.83-.3,1.1-.43h1.33v3.21c-.37.23-.95.57-1.74,1s-1.72.87-2.76,1.31c-1.04.44-2.18.83-3.4,1.15-1.23.33-2.43.49-3.6.49-1.54,0-2.99-.19-4.34-.57-1.36-.38-2.55-.92-3.58-1.62-1.03-.7-1.85-1.58-2.47-2.62-.61-1.04-.92-2.22-.92-3.52v-29.94Z"/><path class="cls-6" d="m1729.73,638.43v4.5c-.96.78-2.09,1.57-3.38,2.37s-2.69,1.51-4.21,2.13c-1.51.63-3.12,1.13-4.81,1.53-1.7.39-3.43.59-5.21.59-2.84,0-5.5-.47-7.96-1.41s-4.6-2.33-6.4-4.17c-1.8-1.84-3.22-4.11-4.25-6.81-1.03-2.7-1.55-5.81-1.55-9.33,0-3.13.49-6.06,1.47-8.79.98-2.73,2.36-5.1,4.15-7.12,1.79-2.02,3.93-3.61,6.42-4.75,2.49-1.15,5.24-1.72,8.24-1.72,2.77,0,5.24.45,7.42,1.35s4.02,2.11,5.54,3.62c1.51,1.51,2.67,3.29,3.46,5.32s1.19,4.16,1.19,6.38c0,.26,0,.57-.02.94-.01.37-.03.75-.06,1.15-.03.4-.07.8-.12,1.17-.05.38-.1.7-.16.96h-29.39c0,5.74,1.29,10.06,3.87,12.95,2.58,2.9,6.22,4.34,10.92,4.34,1.51,0,2.96-.18,4.33-.53,1.37-.35,2.63-.79,3.8-1.31,1.16-.52,2.22-1.09,3.17-1.7.95-.61,1.77-1.17,2.45-1.66h1.1Zm-8.22-16.16c0-1.9-.18-3.63-.53-5.19-.35-1.55-.91-2.88-1.68-3.97-.77-1.1-1.77-1.94-3.01-2.52s-2.75-.88-4.52-.88c-1.56,0-3.01.28-4.32.84-1.32.56-2.48,1.38-3.48,2.47-1,1.08-1.82,2.4-2.45,3.95-.63,1.55-1.02,3.32-1.17,5.3h21.17Z"/><path class="cls-6" d="m1739.73,645.79l4.81-1.57c.44-.13.82-.35,1.12-.65.3-.3.45-.72.45-1.27v-27.16c0-.68-.2-1.21-.59-1.58s-.8-.66-1.21-.84l-4.85-2.04v-2.78l13.85-2.15v9.12h.39c1.2-1.7,2.33-3.14,3.39-4.34,1.06-1.2,2.11-2.18,3.15-2.93,1.04-.76,2.08-1.3,3.11-1.64,1.03-.34,2.09-.51,3.19-.51.63,0,1.26.03,1.92.1s1.29.18,1.92.33c.63.16,1.23.39,1.82.69s1.14.67,1.66,1.12v9.74h-4.77l-1.13-3.01c-.13-.31-.35-.6-.65-.86s-.65-.49-1.06-.68c-.41-.2-.83-.35-1.27-.45-.44-.1-.89-.16-1.33-.16-1.12,0-2.15.2-3.07.61s-1.78.91-2.56,1.53c-.78.61-1.51,1.31-2.19,2.07-.68.77-1.32,1.52-1.92,2.25v23.6c0,.55.14.97.43,1.27.29.3.67.52,1.13.65l6.07,1.57v2.86h-21.8v-2.86Z"/><path class="cls-6" d="m1362.77,771.71l4.97-1.6c.47-.16.84-.37,1.12-.65.27-.27.41-.68.41-1.23v-46.96c0-.55-.16-.98-.47-1.29s-.72-.57-1.21-.78l-4.62-1.92v-2.78l13.42-2.15v6.97h.51c1.15-1.67,2.37-2.99,3.68-3.97s2.58-1.72,3.83-2.21c1.25-.5,2.43-.8,3.54-.92,1.11-.12,2.04-.18,2.8-.18,2.61,0,4.95.51,7.03,1.53,2.07,1.02,3.83,2.43,5.26,4.25,1.43,1.81,2.54,3.97,3.31,6.46.77,2.49,1.15,5.18,1.15,8.08,0,3.24-.46,6.27-1.37,9.12s-2.23,5.32-3.95,7.42c-1.72,2.1-3.82,3.77-6.28,5.01-2.47,1.24-5.26,1.86-8.39,1.86-1.2,0-2.32-.12-3.37-.35-1.04-.23-2-.54-2.88-.92s-1.66-.82-2.35-1.31c-.69-.5-1.3-1.02-1.82-1.57v16.59c0,.55.16.96.47,1.23.31.27.68.48,1.1.61l6.07,1.68v2.86h-21.95v-2.86Zm14.32-23.05c.57.39,1.28.72,2.11.98.83.26,1.7.48,2.58.65s1.74.29,2.54.37c.81.08,1.49.12,2.04.12,2.19,0,4.1-.42,5.71-1.25,1.62-.83,2.95-1.96,3.99-3.38s1.83-3.08,2.35-4.99c.52-1.9.78-3.93.78-6.07,0-2.43-.25-4.7-.74-6.81-.5-2.11-1.27-3.95-2.31-5.5-1.04-1.55-2.37-2.77-3.97-3.66s-3.52-1.33-5.73-1.33c-.65,0-1.4.07-2.23.22s-1.68.39-2.52.74c-.85.35-1.68.82-2.5,1.41-.82.59-1.52,1.3-2.09,2.13v26.38Z"/><path class="cls-6" d="m1437.85,756.21c-3.05,0-5.83-.51-8.34-1.53-2.5-1.02-4.64-2.47-6.42-4.36s-3.15-4.2-4.13-6.93c-.98-2.73-1.47-5.79-1.47-9.18,0-3.13.48-6.05,1.45-8.75s2.34-5.05,4.13-7.04c1.79-2,3.96-3.56,6.52-4.7s5.44-1.7,8.65-1.7c3.44,0,6.44.6,9,1.8,2.56,1.2,4.67,2.8,6.34,4.81,1.67,2.01,2.92,4.35,3.76,7.02.83,2.67,1.25,5.47,1.25,8.39,0,3.11-.48,6.01-1.45,8.71-.96,2.7-2.34,5.05-4.13,7.04-1.79,2-3.96,3.56-6.52,4.7-2.56,1.13-5.44,1.7-8.65,1.7Zm.55-4.27c2.27,0,4.15-.53,5.64-1.6,1.49-1.07,2.67-2.43,3.54-4.09.87-1.66,1.49-3.49,1.86-5.5.37-2.01.55-3.97.55-5.87,0-2.32-.22-4.6-.67-6.83-.44-2.23-1.16-4.21-2.13-5.95-.98-1.74-2.25-3.14-3.82-4.21-1.57-1.07-3.47-1.6-5.71-1.6-1.51,0-2.84.24-3.97.72-1.13.48-2.13,1.15-2.99,2-.86.85-1.58,1.83-2.17,2.93-.59,1.11-1.06,2.28-1.43,3.52-.37,1.24-.63,2.52-.78,3.85-.16,1.33-.23,2.62-.23,3.87,0,1.41.08,2.85.25,4.33s.45,2.9.84,4.29.9,2.69,1.53,3.91c.63,1.23,1.4,2.3,2.31,3.23.91.93,1.98,1.66,3.21,2.19,1.23.54,2.62.8,4.19.8Z"/><path class="cls-6" d="m1468.24,752.38l4.81-1.57c.44-.13.82-.35,1.12-.65.3-.3.45-.72.45-1.27v-27.16c0-.68-.2-1.21-.59-1.58s-.8-.66-1.21-.84l-4.85-2.04v-2.78l13.85-2.15v9.12h.39c1.2-1.7,2.33-3.14,3.39-4.34,1.06-1.2,2.11-2.18,3.15-2.93,1.04-.76,2.08-1.3,3.11-1.64,1.03-.34,2.09-.51,3.19-.51.63,0,1.26.03,1.92.1s1.29.18,1.92.33c.63.16,1.23.39,1.82.69s1.14.67,1.66,1.12v9.74h-4.77l-1.13-3.01c-.13-.31-.35-.6-.65-.86s-.65-.49-1.06-.68c-.41-.2-.83-.35-1.27-.45-.44-.1-.89-.16-1.33-.16-1.12,0-2.15.2-3.07.61s-1.78.91-2.56,1.53c-.78.61-1.51,1.31-2.19,2.07-.68.77-1.32,1.52-1.92,2.25v23.6c0,.55.14.97.43,1.27.29.3.67.52,1.13.65l6.07,1.57v2.86h-21.8v-2.86Z"/><path class="cls-6" d="m1516.28,717.66h-6.81v-3.6c1.12-.18,2.13-.36,3.03-.53.9-.17,1.68-.46,2.35-.86s1.19-.98,1.57-1.74.61-1.81.68-3.17l.39-5.75,6.61-1.25v12.45h14.87l-.27,4.46h-14.6v27.36c0,.94.28,1.72.84,2.35.56.63,1.25,1.14,2.07,1.55.82.41,1.68.7,2.56.9.89.2,1.67.29,2.35.29.44,0,.95-.04,1.53-.14.57-.09,1.13-.2,1.68-.33.55-.13,1.06-.27,1.53-.43.47-.16.83-.3,1.1-.43h1.33v3.21c-.37.23-.95.57-1.74,1s-1.72.87-2.76,1.31c-1.04.44-2.18.83-3.4,1.15-1.23.33-2.43.49-3.6.49-1.54,0-2.99-.19-4.34-.57-1.36-.38-2.55-.92-3.58-1.62-1.03-.7-1.85-1.58-2.47-2.62-.61-1.04-.92-2.22-.92-3.52v-29.94Z"/><path class="cls-6" d="m1547.13,752.38l5.4-1.57c.47-.13.85-.35,1.13-.65.29-.3.43-.72.43-1.27v-29.39h-7.75l.16-4.46h7.71c.21-3.83.76-7.09,1.64-9.76.89-2.67,2.06-4.84,3.52-6.5,1.46-1.66,3.2-2.86,5.21-3.62,2.01-.76,4.23-1.13,6.65-1.13.44,0,1,.03,1.66.1.67.07,1.36.16,2.07.27.72.12,1.42.24,2.09.37.68.13,1.27.26,1.76.39l-.27,7.16h-1.53c-.57-.23-1.17-.48-1.8-.74s-1.29-.5-2-.72c-.7-.22-1.45-.41-2.23-.57-.78-.16-1.62-.23-2.5-.23-1.51,0-2.72.18-3.62.53s-1.57.82-2.02,1.39c-.18.29-.33.8-.45,1.53-.12.73-.22,1.65-.31,2.76-.09,1.11-.16,2.4-.2,3.87-.04,1.47-.06,3.11-.06,4.91h11.9l-.2,4.46h-11.66v29.39c0,.55.16.98.49,1.29.33.31.7.52,1.12.63l6.3,1.57v2.86h-22.66v-2.86Z"/><path class="cls-6" d="m1602.17,756.21c-3.05,0-5.83-.51-8.34-1.53-2.5-1.02-4.64-2.47-6.42-4.36s-3.15-4.2-4.13-6.93c-.98-2.73-1.47-5.79-1.47-9.18,0-3.13.48-6.05,1.45-8.75s2.34-5.05,4.13-7.04c1.79-2,3.96-3.56,6.52-4.7s5.44-1.7,8.65-1.7c3.44,0,6.44.6,9,1.8,2.56,1.2,4.67,2.8,6.34,4.81,1.67,2.01,2.92,4.35,3.76,7.02.83,2.67,1.25,5.47,1.25,8.39,0,3.11-.48,6.01-1.45,8.71-.96,2.7-2.34,5.05-4.13,7.04-1.79,2-3.96,3.56-6.52,4.7-2.56,1.13-5.44,1.7-8.65,1.7Zm.55-4.27c2.27,0,4.15-.53,5.64-1.6,1.49-1.07,2.67-2.43,3.54-4.09.87-1.66,1.49-3.49,1.86-5.5.37-2.01.55-3.97.55-5.87,0-2.32-.22-4.6-.67-6.83-.44-2.23-1.16-4.21-2.13-5.95-.98-1.74-2.25-3.14-3.82-4.21-1.57-1.07-3.47-1.6-5.71-1.6-1.51,0-2.84.24-3.97.72-1.13.48-2.13,1.15-2.99,2-.86.85-1.58,1.83-2.17,2.93-.59,1.11-1.06,2.28-1.43,3.52-.37,1.24-.63,2.52-.78,3.85-.16,1.33-.23,2.62-.23,3.87,0,1.41.08,2.85.25,4.33s.45,2.9.84,4.29.9,2.69,1.53,3.91c.63,1.23,1.4,2.3,2.31,3.23.91.93,1.98,1.66,3.21,2.19,1.23.54,2.62.8,4.19.8Z"/><path class="cls-6" d="m1631.43,752.38l5.91-1.57c.44-.13.82-.35,1.12-.65.3-.3.45-.72.45-1.27v-46.41c0-.57-.17-1.02-.51-1.33-.34-.31-.74-.56-1.21-.74l-6.03-2.23v-2.78l15.54-.7v54.2c0,.55.16.98.49,1.29.33.31.7.52,1.12.63l5.71,1.57v2.86h-22.58v-2.86Z"/><path class="cls-6" d="m1661.89,752.38l5.91-1.57c.47-.13.85-.35,1.16-.65s.45-.72.45-1.27v-27.28c0-.55-.16-.98-.47-1.31-.31-.33-.73-.57-1.25-.72l-5.71-1.92v-2.82l15.26-2.11v36.16c0,.55.16.98.47,1.29s.67.52,1.06.63l5.87,1.57v2.86h-22.74v-2.86Zm10.72-47.51c-.73,0-1.44-.12-2.13-.35-.69-.23-1.29-.57-1.8-1-.51-.43-.92-.96-1.23-1.58-.31-.63-.47-1.34-.47-2.15s.16-1.54.47-2.19c.31-.65.72-1.2,1.23-1.64.51-.44,1.11-.78,1.8-1.02.69-.23,1.4-.35,2.13-.35.89,0,1.69.1,2.41.31.72.21,1.33.52,1.84.94.51.42.91.93,1.19,1.55.29.61.43,1.31.43,2.09,0,.83-.15,1.58-.45,2.25-.3.67-.71,1.23-1.23,1.7-.52.47-1.14.83-1.86,1.08-.72.25-1.49.37-2.33.37Z"/><path class="cls-6" d="m1730.55,745.02v4.5c-.96.78-2.09,1.57-3.38,2.37s-2.69,1.51-4.21,2.13c-1.51.63-3.12,1.13-4.81,1.53-1.7.39-3.43.59-5.21.59-2.84,0-5.5-.47-7.96-1.41s-4.6-2.33-6.4-4.17c-1.8-1.84-3.22-4.11-4.25-6.81-1.03-2.7-1.55-5.81-1.55-9.33,0-3.13.49-6.06,1.47-8.79.98-2.73,2.36-5.1,4.15-7.12,1.79-2.02,3.93-3.61,6.42-4.75,2.49-1.15,5.24-1.72,8.24-1.72,2.77,0,5.24.45,7.42,1.35s4.02,2.11,5.54,3.62c1.51,1.51,2.67,3.29,3.46,5.32s1.19,4.16,1.19,6.38c0,.26,0,.57-.02.94-.01.37-.03.75-.06,1.15-.03.4-.07.8-.12,1.17-.05.38-.1.7-.16.96h-29.39c0,5.74,1.29,10.06,3.87,12.95,2.58,2.9,6.22,4.34,10.92,4.34,1.51,0,2.96-.18,4.33-.53,1.37-.35,2.63-.79,3.8-1.31,1.16-.52,2.22-1.09,3.17-1.7.95-.61,1.77-1.17,2.45-1.66h1.1Zm-8.22-16.16c0-1.9-.18-3.63-.53-5.19-.35-1.55-.91-2.88-1.68-3.97-.77-1.1-1.77-1.94-3.01-2.52s-2.75-.88-4.52-.88c-1.56,0-3.01.28-4.32.84-1.32.56-2.48,1.38-3.48,2.47-1,1.08-1.82,2.4-2.45,3.95-.63,1.55-1.02,3.32-1.17,5.3h21.17Z"/></g><g id="Layer_10"><path class="cls-7" d="m831.18,714.99c1.32-.05,2.64-.11,3.97-.18.27-.01.5-.08.69-.2.18-.12.27-.35.25-.66-.39-7.85-.77-15.69-1.16-23.54-.01-.3-.12-.55-.32-.75-.2-.2-.45-.37-.73-.5-1.37-.66-2.74-1.32-4.12-1.99-.03-.53-.05-1.05-.08-1.58,5.23,1.16,10.45,2.24,15.67,3.26.02.53.05,1.05.07,1.58-1.33.11-2.66.21-3.98.3-.3.01-.54.08-.72.21-.19.13-.27.33-.26.62.19,4.08.38,8.16.57,12.24,4.73-3.39,9.49-6.85,14.27-10.37-.84-.54-1.68-1.08-2.53-1.62-.02-.53-.04-1.05-.07-1.58,4.08.75,8.16,1.45,12.24,2.11.02.53.04,1.05.06,1.58-1.35.14-2.7.27-4.04.4-.31.02-.67.09-1.08.21-.41.12-.77.31-1.09.55-3.49,2.49-6.98,4.94-10.44,7.37,4.43,5.46,8.84,10.88,13.23,16.25.13.14.27.29.42.46.15.17.31.33.47.49.16.16.33.3.51.43.18.13.35.23.5.3,1.26.55,2.51,1.09,3.77,1.63.02.51.04,1.02.06,1.54-4.37-.71-8.74-1.47-13.11-2.28-.02-.51-.04-1.02-.07-1.54.69-.2,1.38-.4,2.07-.61-3.83-4.77-7.67-9.58-11.53-14.42-1.19.34-2.38.67-3.56,1,.15,3.12.3,6.24.44,9.37.01.32.12.58.32.78.2.2.45.37.75.51,1.35.62,2.7,1.25,4.04,1.86.02.54.05,1.08.07,1.62-5.16-1.02-10.32-2.11-15.49-3.26-.03-.54-.06-1.08-.08-1.62Z"/><path class="cls-7" d="m871.29,722.64c1.06-.12,2.12-.25,3.18-.38.29-.03.54-.11.73-.25.19-.13.29-.36.28-.66-.17-5-.34-10.01-.51-15.01-.01-.38-.15-.69-.42-.93-.27-.25-.55-.44-.83-.59-1.1-.54-2.2-1.08-3.3-1.62-.02-.51-.04-1.02-.05-1.54,3.09.08,6.18.14,9.27.18.05,1.68.11,3.36.16,5.04.09.01.18.02.26.04.77-.83,1.51-1.52,2.2-2.09.69-.57,1.38-1.01,2.07-1.34.69-.33,1.38-.54,2.06-.64.69-.1,1.4-.1,2.14-.01.42.05.85.12,1.29.21.44.09.87.2,1.29.34.42.14.83.31,1.23.52.4.21.78.46,1.13.75.05,1.8.1,3.59.14,5.39-1.07-.12-2.13-.25-3.2-.38-.27-.59-.54-1.17-.81-1.76-.09-.18-.24-.36-.45-.53-.21-.17-.45-.33-.72-.47-.27-.14-.56-.26-.86-.36-.3-.1-.6-.16-.9-.2-.75-.1-1.44-.07-2.05.07-.62.14-1.18.35-1.69.62-.51.27-.99.59-1.43.95-.44.36-.86.72-1.25,1.07.14,4.35.28,8.7.42,13.04,0,.3.11.55.31.74.2.19.45.35.77.46,1.36.47,2.71.94,4.07,1.41.02.53.03,1.05.05,1.58-4.84-.63-9.68-1.33-14.52-2.08-.02-.53-.04-1.05-.06-1.58Z"/><path class="cls-7" d="m923.73,724.39c.01.83.03,1.66.04,2.49-.64.39-1.38.78-2.24,1.16-.85.38-1.78.71-2.78.98-1,.27-2.07.47-3.19.6-1.13.13-2.28.14-3.46.04-1.89-.16-3.67-.58-5.32-1.26-1.65-.68-3.09-1.59-4.32-2.72-1.22-1.14-2.2-2.49-2.92-4.06-.72-1.57-1.11-3.32-1.16-5.27-.04-1.73.24-3.31.86-4.75.62-1.44,1.51-2.65,2.69-3.65,1.17-1,2.59-1.73,4.25-2.2,1.66-.48,3.5-.63,5.52-.45,1.86.16,3.53.54,5,1.15,1.47.61,2.72,1.37,3.75,2.27,1.03.91,1.82,1.94,2.37,3.1.55,1.16.84,2.35.85,3.58,0,.14,0,.32,0,.52,0,.2-.02.41-.03.63-.01.22-.04.44-.07.64-.03.21-.06.38-.1.52-6.55-.43-13.11-.98-19.66-1.63.07,3.17.99,5.65,2.75,7.41,1.76,1.76,4.2,2.79,7.33,3.05,1.01.08,1.97.06,2.88-.06.91-.12,1.75-.3,2.52-.53.77-.23,1.47-.5,2.1-.79.63-.29,1.17-.56,1.62-.81.24.02.49.03.73.05Zm-5.64-9.32c-.02-1.05-.15-2.02-.4-2.89-.25-.88-.64-1.64-1.17-2.28-.53-.65-1.21-1.16-2.05-1.56-.84-.39-1.85-.64-3.04-.74-1.05-.09-2.02-.02-2.89.21-.88.23-1.65.61-2.31,1.15-.66.54-1.19,1.21-1.59,2.03-.4.82-.64,1.77-.72,2.85,4.73.47,9.45.88,14.18,1.23Z"/><path class="cls-7" d="m931.33,723.97c1.03.05,2.05.11,3.08.16.29.71.57,1.42.86,2.14.13.29.3.55.52.76.22.21.45.38.7.51.37.19.76.36,1.18.51.42.15.86.28,1.32.4.46.12.94.22,1.42.29.49.08.97.12,1.46.14.71.03,1.44-.01,2.18-.12.74-.11,1.41-.3,2.02-.58.61-.28,1.1-.64,1.47-1.09.37-.44.56-.98.55-1.62,0-.53-.11-.99-.31-1.37-.2-.38-.5-.71-.88-1-.39-.28-.86-.53-1.42-.74-.56-.21-1.2-.41-1.91-.61-.99-.26-1.98-.53-2.95-.79-.97-.27-1.93-.54-2.87-.81-1-.29-1.87-.65-2.63-1.09-.75-.44-1.39-.94-1.91-1.51-.52-.57-.92-1.18-1.19-1.83-.27-.65-.41-1.34-.42-2.06-.01-1.02.29-1.95.92-2.77.63-.83,1.48-1.53,2.55-2.1,1.07-.58,2.31-1.01,3.7-1.3,1.4-.29,2.87-.41,4.41-.36.81.03,1.57.07,2.29.14.72.06,1.41.15,2.07.26.66.11,1.3.23,1.92.37.62.14,1.27.29,1.93.46.04,1.87.09,3.74.13,5.6-1.04-.02-2.08-.04-3.12-.07-.29-.76-.59-1.51-.88-2.27-.11-.23-.27-.45-.5-.64-.23-.19-.47-.34-.71-.45-.62-.26-1.28-.46-2-.6-.72-.14-1.47-.22-2.26-.25-.81-.03-1.54.01-2.22.12-.67.11-1.26.29-1.77.52-.51.24-.9.55-1.17.93-.28.39-.41.84-.41,1.35,0,.55.11,1.03.32,1.43.2.4.52.78.94,1.11.42.34.95.63,1.58.9.63.26,1.38.52,2.23.76.4.11.81.23,1.23.36.42.12.84.24,1.25.34.41.11.82.22,1.22.34.4.12.8.23,1.18.33,1.08.3,2.04.64,2.86,1,.82.36,1.51.79,2.06,1.27.55.48.96,1.03,1.24,1.64.27.62.41,1.33.41,2.14,0,1.17-.33,2.22-1.01,3.14-.67.93-1.57,1.7-2.68,2.34-1.11.63-2.38,1.1-3.82,1.39-1.44.3-2.91.42-4.4.36-.97-.04-1.9-.12-2.79-.24-.89-.12-1.73-.28-2.53-.47-.8-.19-1.57-.39-2.3-.61-.73-.22-1.43-.44-2.09-.66-.02-1.84-.04-3.68-.07-5.51Z"/><path class="cls-7" d="m962.56,710.55c-1.52,0-3.05,0-4.57-.02,0-.66,0-1.33,0-1.99.75-.09,1.43-.19,2.04-.28.6-.09,1.13-.25,1.58-.47.45-.22.8-.54,1.05-.96.25-.42.41-1,.46-1.75.09-1.06.18-2.12.26-3.18,1.48-.23,2.97-.47,4.46-.71,0,2.29,0,4.58-.01,6.88,3.33-.03,6.66-.08,9.99-.17-.07.82-.13,1.65-.2,2.47-3.27.08-6.53.14-9.8.17-.01,5.04-.02,10.08-.03,15.12,0,.52.18.95.56,1.29.37.34.83.62,1.38.84.55.22,1.12.38,1.71.47.59.1,1.11.14,1.56.14.3,0,.63-.04,1.02-.09.38-.06.76-.13,1.12-.21.37-.08.7-.17,1.02-.26.31-.09.56-.18.73-.26.3,0,.59-.01.89-.02,0,.59,0,1.18-.01,1.77-.24.14-.63.33-1.16.58-.53.25-1.15.51-1.84.77-.7.26-1.45.49-2.27.68-.82.19-1.62.3-2.4.31-1.03.01-1.99-.08-2.89-.28-.9-.2-1.7-.5-2.38-.88-.69-.39-1.23-.87-1.64-1.45-.41-.58-.61-1.22-.61-1.95,0-5.51,0-11.03,0-16.54Z"/><path class="cls-7" d="m982.47,729.4c1.31-.33,2.63-.67,3.95-1.01.31-.08.57-.21.77-.39.2-.17.3-.41.31-.72.05-5.02.1-10.05.15-15.08,0-.3-.1-.54-.31-.71-.21-.17-.49-.29-.84-.37-1.27-.3-2.55-.61-3.83-.92,0-.52,0-1.04.01-1.56,3.42-.5,6.84-1.04,10.27-1.6-.08,6.66-.16,13.32-.24,19.98,0,.3.1.53.3.7.21.16.44.27.7.31,1.3.22,2.6.43,3.9.65,0,.53-.01,1.05-.02,1.58-5.05.3-10.09.54-15.14.71,0-.53,0-1.05.01-1.58Zm7.42-26.54c-.49.02-.97-.02-1.43-.13-.47-.11-.87-.28-1.21-.5-.34-.22-.61-.5-.82-.84-.21-.34-.31-.73-.31-1.18,0-.45.11-.85.33-1.22.21-.37.49-.68.84-.94.34-.26.75-.46,1.22-.61.47-.15.95-.24,1.44-.26.6-.03,1.14,0,1.62.1.48.09.89.25,1.24.46.34.21.6.48.79.81.19.33.28.71.28,1.14,0,.46-.11.88-.32,1.26-.21.38-.49.71-.84.98-.35.28-.77.5-1.26.66-.48.16-1.01.25-1.57.28Z"/><path class="cls-7" d="m1002.9,728.36c1.07-.36,2.13-.73,3.2-1.09.31-.11.57-.25.76-.42.19-.17.29-.41.3-.71.09-5.09.18-10.18.27-15.27,0-.3-.1-.53-.3-.68-.21-.15-.48-.28-.83-.38-1.02-.28-2.04-.56-3.06-.84,0-.51.02-1.02.02-1.54,3-.6,6.01-1.22,9.01-1.87-.02,1.23-.05,2.47-.07,3.7.11,0,.23-.02.34-.03.8-.92,1.6-1.66,2.39-2.23.79-.57,1.57-1.03,2.35-1.38.78-.34,1.55-.6,2.31-.76.76-.16,1.52-.27,2.25-.35,1.25-.12,2.41-.1,3.5.09,1.09.18,2.04.54,2.84,1.09.81.54,1.43,1.29,1.88,2.23.45.94.65,2.1.62,3.49-.11,4.15-.22,8.29-.33,12.44,0,.35.08.59.28.74.19.15.44.24.73.28.93.18,1.86.36,2.79.53-.01.53-.03,1.05-.04,1.58-4.27.52-8.53.99-12.8,1.42.01-.53.02-1.05.04-1.58.89-.38,1.79-.76,2.68-1.14.32-.13.58-.29.79-.47.21-.18.32-.44.33-.79.09-3.53.17-7.05.26-10.58.03-1.02-.03-1.92-.17-2.7-.14-.78-.42-1.42-.84-1.92-.42-.5-1.03-.86-1.82-1.07-.79-.21-1.83-.25-3.13-.13-.56.05-1.15.14-1.78.27-.62.13-1.24.3-1.85.52-.61.22-1.19.5-1.73.83-.55.34-1.04.74-1.46,1.2-.1,4.95-.19,9.91-.29,14.86,0,.3.1.53.31.67.21.15.46.25.74.29.8.22,1.61.44,2.41.65-.01.53-.02,1.05-.03,1.58-4.3.39-8.6.73-12.9,1.02,0-.53.02-1.05.03-1.58Z"/><path class="cls-7" d="m1065.17,716.77c-.03.83-.07,1.66-.1,2.49-.66.54-1.43,1.11-2.31,1.7-.88.59-1.83,1.14-2.85,1.65-1.02.51-2.1.97-3.24,1.37-1.14.4-2.3.69-3.48.87-1.89.29-3.65.3-5.28.02-1.62-.28-3.02-.85-4.19-1.7-1.17-.85-2.07-1.98-2.71-3.38-.64-1.4-.94-3.08-.88-5.02.05-1.73.43-3.39,1.13-4.99s1.67-3.03,2.91-4.31c1.23-1.28,2.7-2.36,4.4-3.23,1.7-.88,3.55-1.47,5.57-1.77,1.86-.28,3.51-.3,4.96-.04,1.45.26,2.66.72,3.64,1.39.98.67,1.72,1.51,2.21,2.55.49,1.03.71,2.16.66,3.39,0,.14-.02.32-.03.52-.02.2-.04.42-.07.64-.03.23-.06.45-.1.66-.04.22-.08.4-.13.55-6.56,1.13-13.11,2.16-19.67,3.08-.1,3.17.68,5.44,2.35,6.79,1.67,1.35,4.07,1.79,7.2,1.3,1.01-.16,1.97-.41,2.89-.75.92-.34,1.77-.72,2.56-1.14.79-.42,1.5-.85,2.15-1.3.65-.45,1.2-.85,1.67-1.2.24-.04.49-.08.73-.13Zm-5.15-8.01c.04-1.05-.04-1.99-.25-2.81-.21-.82-.55-1.49-1.05-2.01-.49-.52-1.15-.88-1.97-1.07-.82-.19-1.83-.2-3.02-.02-1.05.16-2.03.46-2.92.9-.89.44-1.69,1.01-2.38,1.7-.69.7-1.27,1.5-1.71,2.42-.45.92-.74,1.93-.88,3.04,4.73-.66,9.45-1.38,14.18-2.16Z"/><path class="cls-7" d="m1072.82,714.53c1.03-.19,2.06-.39,3.08-.58.25.65.5,1.29.74,1.94.11.27.27.48.48.64.21.16.43.27.67.34.36.1.74.18,1.15.22.41.05.85.08,1.3.08.46,0,.93,0,1.41-.05.48-.04.97-.11,1.46-.21.71-.15,1.44-.36,2.19-.64.75-.28,1.43-.64,2.05-1.06.62-.42,1.13-.9,1.53-1.44.4-.53.61-1.12.64-1.75.03-.53-.05-.97-.23-1.3-.18-.33-.46-.59-.83-.79-.37-.19-.83-.33-1.38-.4-.55-.08-1.18-.13-1.88-.15-.98-.02-1.95-.05-2.91-.09-.96-.03-1.9-.07-2.83-.12-.98-.05-1.84-.2-2.57-.46-.73-.26-1.34-.61-1.84-1.05-.49-.44-.85-.96-1.09-1.55-.23-.59-.34-1.25-.31-1.97.04-1.02.4-2.02,1.08-3,.68-.98,1.57-1.88,2.67-2.72,1.11-.83,2.37-1.56,3.79-2.19,1.42-.62,2.9-1.09,4.45-1.41.81-.17,1.57-.3,2.29-.41.72-.11,1.4-.19,2.06-.23.65-.05,1.29-.08,1.91-.09.62-.01,1.25-.01,1.91,0-.06,1.86-.12,3.72-.18,5.58-1.04.23-2.08.46-3.12.68-.25-.69-.5-1.38-.76-2.06-.09-.21-.25-.38-.47-.52-.22-.14-.45-.23-.69-.28-.6-.12-1.26-.16-1.97-.12-.71.03-1.47.13-2.25.29-.81.16-1.55.38-2.23.65-.68.27-1.28.59-1.8.95-.52.36-.93.76-1.23,1.22-.3.45-.46.94-.48,1.46-.02.55.05,1,.24,1.36.18.36.48.65.88.89.41.23.92.41,1.54.52.62.11,1.35.19,2.2.23.4.02.8.04,1.22.06.42.02.83.04,1.23.04.41,0,.81.03,1.2.05.4.02.79.04,1.16.04,1.07.04,2.01.15,2.81.32.8.17,1.47.43,1.99.77.53.35.91.8,1.15,1.35.24.55.34,1.23.3,2.04-.06,1.17-.45,2.3-1.18,3.39-.73,1.09-1.66,2.08-2.81,2.98-1.15.9-2.45,1.67-3.91,2.31-1.46.64-2.94,1.12-4.43,1.42-.97.2-1.9.34-2.78.43-.88.09-1.72.14-2.51.14-.79,0-1.55-.01-2.27-.06-.72-.04-1.41-.09-2.06-.16.08-1.84.16-3.68.24-5.52Z"/><path class="cls-7" d="m842.87,786.45c1.06-.06,2.12-.13,3.18-.2.3-.02.54-.09.71-.21.17-.11.25-.32.23-.63-.42-8.66-.84-17.31-1.25-25.97-.01-.3-.13-.56-.34-.78-.21-.21-.49-.41-.82-.6-1.03-.56-2.05-1.13-3.08-1.7-.03-.51-.05-1.02-.08-1.54,2.92.23,5.84.43,8.76.61.06,1.28.12,2.57.18,3.85.11.02.22.04.33.07.71-.77,1.48-1.35,2.31-1.73.83-.38,1.65-.62,2.46-.74.81-.12,1.58-.15,2.3-.08.73.07,1.34.15,1.83.24,1.71.31,3.26.86,4.65,1.66,1.38.8,2.57,1.77,3.55,2.93.98,1.16,1.75,2.47,2.3,3.93.56,1.46.86,2.99.92,4.59.07,1.79-.17,3.42-.7,4.89-.54,1.48-1.34,2.7-2.42,3.67-1.08.97-2.4,1.66-3.98,2.07-1.58.4-3.38.42-5.42.04-.78-.15-1.51-.35-2.2-.61-.68-.26-1.32-.55-1.89-.87-.58-.32-1.1-.66-1.56-1.02-.46-.36-.87-.73-1.22-1.1.02.33.03.66.05,1,.13,2.73.25,5.45.38,8.18.01.3.13.55.34.74.21.19.45.35.73.48,1.33.57,2.65,1.13,3.97,1.69.02.53.05,1.05.07,1.58-4.74-.9-9.48-1.86-14.22-2.88-.03-.53-.05-1.05-.08-1.58Zm8.7-10.83c.38.29.85.56,1.4.81.55.25,1.12.48,1.7.68.58.2,1.14.38,1.67.52.53.14.97.25,1.33.31,1.43.27,2.66.26,3.69-.01,1.03-.27,1.88-.74,2.52-1.41.65-.67,1.12-1.5,1.42-2.49.3-.99.42-2.08.38-3.27-.05-1.34-.27-2.62-.64-3.85-.37-1.22-.92-2.32-1.64-3.3-.72-.98-1.61-1.8-2.69-2.48-1.07-.68-2.34-1.15-3.79-1.42-.43-.08-.91-.13-1.46-.15-.54-.02-1.09,0-1.64.1-.55.09-1.08.24-1.61.46-.52.22-.96.52-1.32.91.22,4.86.44,9.72.67,14.58Z"/><path class="cls-7" d="m891.27,786.22c-1.98-.25-3.8-.78-5.45-1.56-1.65-.79-3.07-1.79-4.26-3-1.19-1.21-2.13-2.62-2.82-4.22-.69-1.6-1.07-3.34-1.14-5.22-.06-1.73.2-3.3.78-4.69.58-1.4,1.44-2.56,2.57-3.5,1.14-.94,2.53-1.6,4.19-2,1.66-.4,3.54-.46,5.65-.2,2.26.28,4.24.85,5.94,1.71,1.7.86,3.11,1.9,4.23,3.13,1.12,1.23,1.97,2.61,2.56,4.14.58,1.54.89,3.11.93,4.72.04,1.72-.24,3.29-.83,4.71-.59,1.43-1.46,2.63-2.59,3.61-1.14.98-2.52,1.68-4.17,2.12-1.65.43-3.51.52-5.6.25Zm.29-2.31c1.48.19,2.69.04,3.64-.43.95-.48,1.7-1.14,2.24-1.99.55-.85.92-1.82,1.13-2.9.21-1.08.3-2.15.27-3.2-.03-1.28-.21-2.56-.53-3.82-.32-1.27-.82-2.41-1.48-3.45-.67-1.03-1.52-1.91-2.56-2.62-1.04-.71-2.3-1.16-3.77-1.35-.99-.13-1.86-.1-2.59.06-.74.17-1.38.45-1.93.84-.55.39-1.01.87-1.37,1.43-.36.56-.66,1.17-.87,1.82-.22.65-.36,1.34-.44,2.06-.08.72-.11,1.43-.08,2.12.03.78.11,1.58.24,2.41.14.83.35,1.65.63,2.45.28.8.64,1.57,1.07,2.3.43.73.95,1.4,1.56,1.99.61.59,1.32,1.09,2.13,1.49.81.4,1.72.67,2.74.8Z"/><path class="cls-7" d="m910.97,786.27c1.04-.19,2.08-.39,3.11-.59.29-.05.53-.15.72-.29.19-.15.28-.38.28-.68-.1-5-.2-10.01-.3-15.01,0-.37-.14-.68-.4-.91-.26-.23-.53-.41-.8-.53-1.07-.47-2.14-.94-3.21-1.41-.01-.51-.02-1.02-.03-1.54,3.02-.12,6.05-.26,9.07-.43.03,1.68.06,3.36.09,5.04.09,0,.17.01.26.02.77-.88,1.5-1.63,2.18-2.24.68-.61,1.36-1.11,2.04-1.48.68-.37,1.35-.63,2.03-.77.67-.14,1.37-.19,2.09-.15.41.02.83.07,1.26.13.43.06.85.15,1.26.26.41.11.81.26,1.2.44.39.19.76.41,1.1.67.02,1.8.04,3.59.07,5.39-1.04-.05-2.08-.11-3.13-.17-.25-.57-.51-1.14-.76-1.71-.09-.18-.23-.34-.43-.5-.2-.16-.43-.3-.7-.42-.27-.12-.54-.22-.84-.3-.29-.08-.58-.12-.87-.14-.74-.05-1.41.02-2.01.2-.6.18-1.16.42-1.67.73-.51.3-.98.65-1.42,1.04-.44.39-.85.78-1.23,1.15.08,4.35.15,8.7.23,13.04,0,.3.1.54.29.72.19.18.44.32.75.41,1.32.39,2.64.77,3.96,1.14,0,.53.02,1.05.02,1.58-4.72-.32-9.45-.69-14.17-1.13-.01-.53-.02-1.05-.03-1.58Z"/><path class="cls-7" d="m942.06,769.09c-1.49-.05-2.98-.11-4.47-.18,0-.66-.01-1.33-.02-1.99.74-.07,1.4-.14,1.99-.21.59-.07,1.1-.21,1.54-.42.43-.21.78-.52,1.02-.92.24-.41.39-.99.43-1.74.08-1.06.15-2.11.23-3.17,1.45-.18,2.9-.37,4.35-.56.01,2.29.03,4.58.04,6.88,3.25.09,6.51.15,9.76.18-.06.82-.12,1.64-.17,2.46-3.19-.03-6.38-.09-9.57-.18.03,5.04.06,10.08.1,15.12,0,.52.19.96.56,1.31.37.35.82.65,1.36.89.54.24,1.09.41,1.67.53.58.12,1.09.18,1.53.19.29,0,.62-.01.99-.06.37-.05.74-.1,1.1-.17.36-.07.69-.14.99-.22.31-.08.54-.16.71-.23.29,0,.58,0,.87,0,0,.59,0,1.18,0,1.77-.24.13-.61.31-1.13.54-.52.23-1.11.47-1.79.7-.68.24-1.42.44-2.21.6-.8.17-1.58.24-2.34.22-1-.02-1.94-.15-2.83-.39-.88-.23-1.66-.56-2.34-.97-.67-.41-1.21-.91-1.62-1.5-.4-.59-.61-1.25-.61-1.97-.05-5.52-.09-11.03-.14-16.54Z"/><path class="cls-7" d="m962.3,788.64c1.17-.29,2.34-.58,3.51-.87.31-.07.55-.19.74-.36.19-.17.28-.4.28-.7,0-5.41.02-10.83.03-16.24-1.69.01-3.39.02-5.08.01.03-.82.07-1.64.1-2.47,1.69,0,3.37,0,5.06-.02.14-2.12.5-3.92,1.09-5.4.59-1.48,1.36-2.69,2.33-3.62.96-.93,2.11-1.61,3.44-2.06,1.33-.44,2.79-.69,4.39-.73.29,0,.66,0,1.1.02.44.02.89.06,1.37.11.47.05.93.1,1.38.16.45.06.83.12,1.16.18-.07,1.32-.14,2.64-.21,3.96-.33.01-.67.02-1,.03-.38-.12-.77-.24-1.18-.37-.41-.13-.85-.25-1.31-.36-.46-.11-.95-.2-1.47-.27-.51-.07-1.07-.1-1.65-.09-1,.02-1.79.14-2.38.34-.59.21-1.04.47-1.33.79-.12.16-.22.44-.3.85-.08.41-.15.91-.21,1.53-.06.61-.11,1.33-.14,2.14-.03.81-.05,1.72-.05,2.71,2.6-.04,5.2-.1,7.81-.18-.05.82-.1,1.65-.15,2.47-2.55.08-5.1.13-7.64.18-.02,5.41-.04,10.83-.06,16.24,0,.3.1.54.32.71.21.17.45.28.72.33,1.37.26,2.73.52,4.09.78,0,.53,0,1.05,0,1.58-4.91.13-9.82.19-14.73.18,0-.53,0-1.05,0-1.58Z"/><path class="cls-7" d="m998.07,789.65c-1.98.13-3.79-.05-5.41-.53-1.62-.48-3-1.21-4.15-2.2-1.14-.99-2.03-2.23-2.65-3.71-.62-1.48-.93-3.16-.91-5.03.02-1.73.34-3.35.99-4.87.65-1.52,1.56-2.85,2.74-4.01,1.18-1.16,2.62-2.09,4.3-2.81,1.69-.72,3.58-1.14,5.69-1.27,2.26-.14,4.22.05,5.89.59,1.67.54,3.04,1.32,4.11,2.34,1.07,1.02,1.87,2.25,2.39,3.68.52,1.43.76,2.96.73,4.57-.04,1.72-.38,3.35-1.04,4.89-.66,1.55-1.58,2.92-2.76,4.12-1.19,1.2-2.61,2.17-4.29,2.92-1.67.75-3.55,1.19-5.64,1.32Zm.39-2.38c1.48-.09,2.7-.47,3.68-1.13.98-.66,1.76-1.47,2.34-2.43.58-.96,1.01-2,1.26-3.13.26-1.13.4-2.22.42-3.27.02-1.28-.1-2.53-.37-3.74-.27-1.21-.71-2.27-1.34-3.18-.62-.91-1.45-1.63-2.46-2.15-1.02-.52-2.26-.73-3.73-.64-.99.06-1.86.25-2.61.56-.75.31-1.41.71-1.98,1.21-.57.5-1.05,1.07-1.44,1.7-.39.63-.71,1.3-.96,1.99-.25.7-.43,1.42-.54,2.16-.11.74-.17,1.46-.18,2.15,0,.78.04,1.57.14,2.38.1.81.28,1.59.52,2.34.25.75.57,1.46.97,2.11.4.66.89,1.22,1.48,1.7.59.48,1.28.84,2.07,1.09.79.25,1.7.34,2.72.28Z"/><path class="cls-7" d="m1017.13,786c1.29-.41,2.58-.83,3.87-1.25.29-.1.54-.25.73-.43.2-.19.3-.43.31-.73.21-8.55.42-17.1.63-25.65,0-.32-.1-.55-.32-.7-.22-.15-.48-.26-.79-.33-1.31-.28-2.63-.56-3.94-.84.01-.51.02-1.02.03-1.54,3.42-.46,6.83-.94,10.25-1.46-.26,9.99-.53,19.97-.8,29.96,0,.3.09.53.3.68.21.15.45.24.72.26,1.23.14,2.46.28,3.69.42-.02.53-.03,1.05-.05,1.58-4.89.6-9.79,1.14-14.68,1.62.01-.53.02-1.05.04-1.58Z"/><path class="cls-7" d="m1036.95,783.73c1.29-.46,2.58-.92,3.87-1.39.31-.11.56-.27.76-.46.2-.19.31-.44.32-.74.16-5.03.33-10.05.5-15.08.01-.3-.08-.53-.28-.68-.2-.15-.47-.25-.81-.29-1.24-.18-2.48-.37-3.71-.55.02-.52.03-1.04.05-1.56,3.35-.83,6.7-1.68,10.06-2.57-.23,6.66-.46,13.33-.7,19.99-.01.3.08.53.28.67.2.14.42.22.68.24,1.26.1,2.53.19,3.79.27-.02.53-.04,1.05-.06,1.58-4.93.78-9.86,1.5-14.79,2.15.02-.53.03-1.05.05-1.58Zm7.86-27.23c-.48.07-.95.07-1.4,0-.45-.07-.84-.19-1.17-.39-.33-.19-.59-.45-.78-.76-.2-.32-.29-.7-.27-1.15.01-.45.13-.87.35-1.25.22-.39.5-.73.84-1.02.34-.29.74-.53,1.21-.73.46-.19.93-.32,1.41-.39.58-.08,1.11-.1,1.58-.06.47.05.87.16,1.2.34.33.18.58.43.76.74.18.31.26.68.24,1.12-.02.46-.13.89-.34,1.29-.21.4-.49.75-.84,1.06-.35.31-.77.57-1.24.77-.48.21-.99.35-1.54.43Z"/><path class="cls-7" d="m1081.85,771.98c-.04.83-.08,1.66-.12,2.49-.65.57-1.4,1.16-2.27,1.77-.86.61-1.79,1.2-2.8,1.74-1,.55-2.06,1.04-3.17,1.47-1.11.43-2.25.76-3.4.98-1.85.35-3.57.42-5.15.19-1.58-.23-2.94-.75-4.07-1.56-1.13-.81-2-1.91-2.62-3.29-.61-1.38-.88-3.04-.81-4.99.07-1.73.45-3.4,1.15-5.02.7-1.61,1.66-3.08,2.88-4.4,1.22-1.32,2.66-2.44,4.32-3.37,1.66-.93,3.48-1.58,5.45-1.95,1.82-.35,3.43-.41,4.84-.2,1.41.21,2.59.64,3.54,1.27.95.63,1.66,1.46,2.13,2.47.47,1.02.67,2.14.61,3.36,0,.14-.02.32-.04.52-.02.2-.04.42-.07.65-.03.23-.06.45-.11.67-.04.22-.09.4-.13.55-6.41,1.35-12.81,2.59-19.22,3.72-.13,3.17.61,5.41,2.23,6.71,1.62,1.3,3.95,1.66,7.01,1.06.99-.19,1.93-.47,2.83-.85.9-.37,1.74-.78,2.51-1.22.77-.44,1.47-.9,2.11-1.37.64-.47,1.18-.89,1.64-1.25.24-.05.48-.1.71-.15Zm-4.94-7.83c.05-1.05-.02-1.99-.21-2.8-.19-.81-.52-1.47-1-1.98-.48-.51-1.11-.84-1.91-1.01-.8-.17-1.78-.14-2.94.08-1.03.19-1.98.53-2.86,1-.88.47-1.66,1.06-2.34,1.78-.68.72-1.25,1.54-1.69,2.47-.45.93-.74,1.95-.89,3.07,4.62-.82,9.24-1.69,13.86-2.62Z"/><path class="cls-7" d="m887.85,852.96c1.04-.15,2.07-.3,3.11-.45.29-.05.53-.13.69-.26.17-.13.25-.34.24-.65-.27-8.65-.54-17.31-.81-25.96,0-.3-.12-.55-.32-.75-.21-.2-.47-.38-.79-.54-1-.49-1.99-.97-2.99-1.46-.02-.51-.03-1.02-.05-1.54,2.85,0,5.71-.02,8.56-.06.04,1.28.07,2.57.11,3.85.11.01.22.03.33.04.71-.83,1.47-1.47,2.29-1.91.82-.44,1.63-.75,2.42-.94.8-.18,1.55-.27,2.26-.26.71.01,1.31.04,1.79.1,1.67.18,3.18.61,4.52,1.3,1.34.69,2.48,1.58,3.42,2.67.94,1.09,1.67,2.34,2.19,3.76.52,1.42.8,2.93.83,4.53.04,1.79-.22,3.44-.77,4.96-.55,1.52-1.36,2.81-2.42,3.87-1.07,1.06-2.37,1.86-3.92,2.38-1.55.53-3.31.68-5.3.46-.76-.08-1.47-.23-2.14-.44-.66-.21-1.28-.45-1.84-.72-.56-.27-1.06-.58-1.51-.9-.45-.33-.84-.66-1.18-1.01,0,.33.02.66.03,1,.08,2.73.16,5.45.24,8.18,0,.3.12.54.32.72.2.18.44.31.7.42,1.29.47,2.57.93,3.86,1.38.01.53.03,1.05.04,1.58-4.62-.53-9.24-1.12-13.86-1.77-.02-.53-.04-1.05-.05-1.58Zm8.67-11.54c.37.26.82.5,1.36.71.53.21,1.08.39,1.65.55.57.16,1.11.29,1.62.39.51.1.95.17,1.29.21,1.39.16,2.59.06,3.61-.3,1.01-.35,1.85-.89,2.49-1.61.64-.72,1.12-1.59,1.43-2.61.31-1.02.45-2.12.42-3.3-.03-1.34-.22-2.61-.56-3.81-.34-1.2-.86-2.26-1.55-3.19-.69-.92-1.55-1.68-2.59-2.28-1.04-.6-2.27-.97-3.69-1.13-.42-.05-.89-.06-1.42-.04-.53.02-1.07.09-1.6.22-.54.13-1.06.33-1.58.59-.52.26-.95.6-1.3,1.02.14,4.86.28,9.72.42,14.58Z"/><path class="cls-7" d="m921.3,845.95c1.24-.19,2.49-.39,3.73-.59.28-.05.51-.16.7-.31.19-.15.28-.38.27-.68-.14-8.55-.28-17.1-.41-25.65,0-.32-.12-.57-.34-.76-.22-.19-.48-.34-.79-.46-1.3-.5-2.59-1.01-3.89-1.52,0-.51-.02-1.02-.03-1.54,3.33.13,6.66.22,9.98.29.14,9.99.28,19.97.41,29.96,0,.3.11.55.32.73.21.19.45.31.71.39,1.21.36,2.43.71,3.64,1.06,0,.53.01,1.05.02,1.58-4.77-.24-9.54-.55-14.31-.91,0-.53-.02-1.05-.03-1.58Z"/><path class="cls-7" d="m958.22,845.63c-.69.84-1.44,1.52-2.25,2.02-.81.5-1.63.89-2.45,1.15-.83.27-1.63.44-2.41.52-.79.08-1.5.11-2.14.09-1.21-.03-2.28-.25-3.23-.64-.95-.4-1.75-.91-2.41-1.53-.66-.62-1.17-1.33-1.53-2.12-.36-.79-.55-1.61-.56-2.47,0-.99.18-1.87.59-2.63.4-.76.93-1.42,1.59-1.98.66-.57,1.43-1.04,2.31-1.42.88-.38,1.79-.69,2.74-.93.95-.24,1.9-.4,2.87-.49.96-.1,1.87-.14,2.72-.12.18,0,.47.02.85.05.38.03.79.06,1.21.11.42.05.82.09,1.2.13.37.04.64.07.81.08,0-1.07.01-2.13.02-3.2,0-.82-.13-1.51-.38-2.06-.25-.55-.59-.99-1.03-1.33-.44-.34-.96-.58-1.58-.73-.62-.15-1.3-.24-2.05-.25-.85-.02-1.71.1-2.56.34-.86.24-1.67.53-2.45.88-.77.35-1.49.71-2.16,1.08-.66.38-1.22.69-1.67.93-.33-.01-.67-.02-1-.03-.07-1.41-.14-2.82-.21-4.22.72-.2,1.44-.41,2.19-.63.74-.21,1.53-.4,2.36-.56.83-.16,1.72-.28,2.67-.38.94-.09,1.98-.13,3.12-.11,1.22.02,2.41.15,3.58.37,1.17.23,2.21.62,3.12,1.18.91.56,1.65,1.32,2.21,2.29.56.97.84,2.2.84,3.7-.02,4-.03,8-.05,12,0,.27.07.52.2.75.13.22.31.41.53.57.22.16.48.28.77.37.29.09.58.13.86.13.18,0,.37-.02.56-.06.19-.04.4-.09.62-.16.22-.07.44-.14.65-.23.21-.09.41-.17.61-.24.13,0,.26,0,.4,0,0,.61,0,1.21,0,1.82-.25.16-.57.35-.98.57-.41.22-.84.43-1.32.63-.47.2-.95.37-1.44.52-.49.15-.93.22-1.33.22-.78,0-1.45-.08-2.03-.24-.58-.16-1.06-.4-1.45-.73-.39-.33-.68-.74-.87-1.23-.19-.49-.29-1.08-.29-1.75-.11,0-.22,0-.32,0Zm-.12-8.2c-1.73-.01-3.31.03-4.75.13-1.44.1-2.66.32-3.67.65-1.01.33-1.79.8-2.35,1.42-.55.62-.82,1.42-.82,2.42,0,.81.16,1.49.46,2.04.3.55.69.99,1.15,1.32.46.33.98.57,1.56.71.57.14,1.13.22,1.68.23.55.01,1.14-.03,1.77-.12.64-.09,1.26-.23,1.87-.42.61-.19,1.19-.44,1.74-.75.55-.3,1-.67,1.36-1.1,0-2.18,0-4.35-.01-6.53Z"/><path class="cls-7" d="m972.11,847.47c1.01-.31,2.02-.61,3.03-.93.3-.09.54-.22.72-.38.18-.16.28-.4.28-.7.03-5.09.06-10.18.09-15.27,0-.3-.1-.53-.3-.7-.2-.16-.47-.3-.8-.42-.97-.33-1.95-.67-2.92-1,0-.51,0-1.02,0-1.54,2.86-.45,5.72-.92,8.58-1.41,0,1.23-.02,2.47-.03,3.7.11,0,.22,0,.33-.01.76-.88,1.51-1.58,2.26-2.11.75-.53,1.49-.95,2.23-1.26.74-.31,1.47-.52,2.2-.64.73-.12,1.44-.2,2.14-.23,1.19-.06,2.3.03,3.34.27,1.04.24,1.95.65,2.72,1.23.78.59,1.38,1.36,1.82,2.33.43.96.64,2.14.62,3.52-.06,4.15-.13,8.29-.19,12.44,0,.35.09.6.27.76.19.16.42.27.7.32.89.23,1.78.45,2.67.68,0,.53-.02,1.05-.03,1.58-4.06.3-8.12.55-12.18.75,0-.53.01-1.05.02-1.58.85-.33,1.69-.66,2.54-1,.3-.12.55-.26.75-.43.2-.17.3-.43.31-.77.05-3.53.1-7.05.14-10.58.01-1.02-.05-1.93-.19-2.71-.14-.78-.41-1.44-.82-1.96-.41-.53-.99-.91-1.75-1.16-.76-.25-1.75-.34-2.99-.29-.53.02-1.1.09-1.69.18-.59.1-1.18.24-1.75.43-.58.19-1.13.44-1.65.74-.52.31-.98.68-1.38,1.13-.04,4.95-.08,9.91-.12,14.86,0,.3.1.53.3.69.21.16.44.27.71.33.77.26,1.53.52,2.3.78,0,.53-.01,1.05-.02,1.58-4.09.17-8.18.29-12.28.36,0-.53,0-1.05,0-1.58Z"/><path class="cls-7" d="m1010.87,826.23c-1.45.13-2.9.25-4.36.37.01-.66.03-1.33.04-1.99.72-.16,1.37-.31,1.95-.45.58-.14,1.08-.34,1.51-.6.43-.26.77-.61,1.02-1.05.25-.44.41-1.04.48-1.79.11-1.07.21-2.13.32-3.2,1.42-.36,2.84-.72,4.26-1.09-.05,2.29-.11,4.59-.16,6.88,3.17-.31,6.35-.65,9.52-1.01-.08.83-.16,1.66-.24,2.49-3.11.36-6.23.69-9.34.99-.12,5.04-.23,10.08-.35,15.12-.01.52.16.93.5,1.25.35.31.78.55,1.3.72.52.17,1.05.28,1.61.33.56.05,1.06.05,1.49,0,.28-.03.61-.09.97-.18.37-.09.72-.19,1.07-.3.35-.11.67-.23.98-.35.3-.12.53-.23.7-.32.28-.03.56-.06.84-.1-.02.59-.03,1.18-.05,1.77-.24.16-.61.38-1.12.68-.51.3-1.1.6-1.77.92-.67.32-1.39.61-2.18.87-.78.26-1.54.43-2.29.51-.98.1-1.89.09-2.75-.04-.86-.13-1.61-.35-2.25-.68-.64-.33-1.16-.76-1.53-1.31-.38-.54-.56-1.17-.54-1.89.12-5.52.23-11.03.35-16.55Z"/><path class="cls-7" d="m1053.83,835.75c-.03.83-.07,1.66-.1,2.49-.63.54-1.36,1.09-2.2,1.67-.84.58-1.74,1.11-2.72,1.62-.97.5-2,.94-3.08,1.33-1.08.38-2.19.66-3.31.83-1.8.27-3.48.25-5.02-.05-1.55-.3-2.88-.89-3.99-1.75-1.11-.87-1.97-2.01-2.58-3.42-.61-1.41-.89-3.09-.83-5.04.05-1.73.41-3.39,1.08-4.97.67-1.59,1.59-3.01,2.77-4.28,1.18-1.27,2.57-2.33,4.19-3.18,1.62-.85,3.39-1.42,5.31-1.71,1.77-.26,3.35-.26,4.73.02,1.38.28,2.53.76,3.47,1.43.94.68,1.64,1.54,2.1,2.58.46,1.04.67,2.17.62,3.4,0,.14-.02.32-.03.52-.02.2-.04.42-.06.64-.03.23-.06.45-.1.66-.04.22-.08.4-.12.55-6.25,1.06-12.5,2-18.74,2.84-.1,3.17.65,5.45,2.24,6.82,1.59,1.37,3.87,1.84,6.85,1.39.96-.15,1.88-.39,2.76-.72.88-.33,1.69-.7,2.44-1.11.75-.41,1.43-.83,2.05-1.27.62-.44,1.15-.83,1.59-1.18.23-.04.47-.08.7-.12Zm-4.89-8.07c.04-1.05-.04-1.99-.23-2.81-.19-.82-.52-1.5-.99-2.03-.47-.53-1.1-.89-1.88-1.1-.78-.2-1.74-.22-2.88-.05-1,.15-1.93.44-2.78.87-.85.43-1.61.99-2.27,1.68-.66.69-1.21,1.49-1.63,2.4-.43.91-.71,1.92-.84,3.03,4.5-.61,9.01-1.27,13.51-1.98Z"/></g></svg>